<?xml version="1.0" encoding="UTF-8" standalone="no"?>
<svg
   id="Layer_1"
   data-name="Layer 1"
   viewBox="0 0 1728 1296"
   version="1.1"
   sodipodi:docname="YardSign2 (1).svg"
   inkscape:version="1.2.2 (b0a8486541, 2022-12-01)"
   xmlns:inkscape="http://www.inkscape.org/namespaces/inkscape"
   xmlns:sodipodi="http://sodipodi.sourceforge.net/DTD/sodipodi-0.dtd"
   xmlns="http://www.w3.org/2000/svg"
   xmlns:svg="http://www.w3.org/2000/svg">
  <sodipodi:namedview
     id="namedview6308"
     pagecolor="#ffffff"
     bordercolor="#000000"
     borderopacity="0.25"
     inkscape:showpageshadow="2"
     inkscape:pageopacity="0.0"
     inkscape:pagecheckerboard="0"
     inkscape:deskcolor="#d1d1d1"
     showgrid="false"
     inkscape:zoom="0.51714503"
     inkscape:cx="1180.5199"
     inkscape:cy="565.60536"
     inkscape:window-width="2560"
     inkscape:window-height="1403"
     inkscape:window-x="4480"
     inkscape:window-y="120"
     inkscape:window-maximized="1"
     inkscape:current-layer="Layer_1" />
  <defs
     id="defs6068">
    <style
       id="style6066">
      .cls-1, .cls-2, .cls-3, .cls-4, .cls-5 {
        stroke: #fff;
        stroke-miterlimit: 10;
      }

      .cls-1, .cls-3 {
        fill-rule: evenodd;
      }

      .cls-1, .cls-3, .cls-4 {
        stroke-width: 5px;
      }

      .cls-1, .cls-6 {
        fill: #262262;
      }

      .cls-2 {
        fill: none;
        stroke-width: 6px;
      }

      .cls-3, .cls-4 {
        fill: #ed1c24;
      }

      .cls-7 {
        fill: #fff;
      }

      .cls-5 {
        fill: #4c2e12;
        stroke-width: 4px;
      }

      .cls-8 {
        fill: #006838;
      }
    </style>
  </defs>
  <rect
     id="Background"
     class="cls-8"
     width="1728"
     height="1296"
     rx="108"
     ry="108" />
  <g
     id="g6199">
    <g
       id="g6137">
      <g
         id="g6077">
        <path
           class="cls-1"
           d="m 1143.64,760.31 c -2.51,2.08 -7.43,1.23 -10.8,1.39 -17.72,0.08 -34.25,-0.19 -51.83,-0.2 -35.33,-0.4 -70.91,-0.4 -106.27,-0.3 -10.95,0.14 -21.97,-0.06 -32.86,0 -5,0 -10.04,0.02 -15.02,-0.02 -4.14,0 -6.95,-1.6 -7.09,-6.07 -0.27,-18.35 0,-36.61 0.07,-55.08 -0.02,-33.44 0.39,-67.3 0.02,-100.75 0.28,-24.54 0.18,-49.04 0.5,-73.67 -0.05,-3.93 0.09,-8.07 -0.05,-12.11 -0.04,-4.8 -2.65,-6.54 -7.22,-6.49 -17.6,-0.3 -35.09,-0.09 -52.76,-0.11 -59.3,-0.11 -119.22,0.16 -178.63,0.84 -18.28,0.08 -36.33,0.24 -54.69,0.17 -4.67,0 -9.56,0 -14.3,0 -2.4,-0.03 -5.27,0.09 -7.34,-0.72 -2.48,-0.89 -3.34,-3.52 -3.2,-6.08 0.87,-39.1 1.91,-78.27 2.98,-117.41 0.28,-11.47 0.4,-22.46 0.67,-33.64 0.11,-5.55 0.26,-11.56 0.29,-17.09 0.53,-4.58 -2.43,-7.49 -7.11,-7.32 -99.86,-1.48 -199.67,-3.06 -299.59,-5.08 -34.6,-0.69 -69.15,-1.58 -103.75,-2.57 -2.95,-0.09 -5.3,-0.57 -6.46,-3.04 -1.31,-3.64 -0.44,-8.46 -0.4,-12.44 0.52,-9.17 0.58,-18.92 0.79,-27.93 0.38,-22.13 1.01,-44.34 1.48,-66.41 0.26,-6.54 0.31,-13.33 0.45,-19.96 0.06,-3.86 0.54,-8.3 5.38,-8.54 95.84,1.12 192.01,4.58 288,5.31 83.55,1.32 167.02,2.33 250.49,3.06 44.81,0.77 89.65,1.95 134.39,2.32 41.72,-0.52 83.97,-0.19 125.7,0.14 38.67,-0.57 77.38,0.23 116.01,0.02 42.09,-0.27 84.27,-0.29 126.38,-0.43 4.95,0.07 8.09,2.48 10.29,6.62 5.33,8.96 10.79,18.26 16.09,27.23 15.78,26.25 31.56,53.03 47.24,79.42 2.43,3.77 2.54,6.5 -2.32,7.35 -4.13,0.81 -8.21,1.4 -12.38,2.18 -4.09,0.65 -6.99,3.11 -7.78,7.42 -4.13,22.47 -4.9,18.71 -22.22,31.55 -10.33,7.33 -20.39,15.18 -31.09,22.18 -3.88,2.35 -9.85,6.64 -6.87,11.57 1.6,2.18 4.91,3.46 5.9,6.21 1.44,3.57 2.89,-1.37 4.36,-2.3 0.84,-0.77 2.03,-0.71 2.81,0.13 2.92,3.77 4.42,6.11 9.79,5.19 3.09,-0.37 6.03,-2.63 9.14,-1.52 3.63,1.28 4.05,6.71 6.93,8.31 1.87,1.01 4.21,0.13 6.18,0.35 2.11,0.16 3.49,1.4 5.67,1.36 5.18,-0.81 8.34,-2.25 7.47,5.3 -0.43,3.52 1.81,4.96 4.17,2.96 1.14,-0.95 1.54,-3.12 2.3,-4.74 0.72,-1.77 1.97,-3.28 2.72,-5.03 1.01,-2.25 0.95,-6.49 3.37,-3.63 2.53,5.65 1.95,4.08 7.32,6.14 3.97,2.17 0.02,8.31 -0.38,11.64 -0.52,2.28 -1.24,3.91 -0.83,5.96 1.47,3.51 6.37,1.22 8.28,-0.96 2.32,-2.07 5.04,-6.69 7.96,-2.79 2.77,2.45 1.83,6.18 1.19,9.64 0.13,1.18 -0.48,2.89 0.89,3.02 1.15,0.03 2.82,-0.78 4.01,-0.84 1.76,0.15 -1.5,4.05 3.42,3.16 3.1,-0.68 5.78,-4.06 6.34,-2.33 -0.38,3.3 -1.47,8.1 -3.81,10.2 -1.24,1.09 -3.33,1.62 -4.37,2.86 -1.44,2.62 2.57,5.1 4.67,6.01 2.44,1.15 4.62,-2.21 6.78,-0.05 2.37,2.11 3.88,5.64 4.37,8.88 0.48,3.46 -1.28,7.32 0.29,10.02 1.31,2.52 5.63,1.55 6.51,4.26 0.35,5.91 5.69,4.55 8.36,7.45 0.44,1 -1.06,1.54 -1.69,2.16 -2.34,1.52 -3.08,3.72 -4.65,6.19 -3.44,4.03 -2.58,5.61 0.1,10.11 4.91,9.15 6.45,-5.7 13.34,-3.51 2.01,0.72 4.86,1.07 6.26,2.4 0.84,1.03 -0.29,2.37 -0.21,3.54 -0.2,1.53 0.97,3.21 0.58,4.56 -0.8,2.55 -5.11,3.45 -4.78,6.55 0.97,4.61 8.5,4.62 9.72,9.43 0.73,2.66 -2.18,5.38 -2.25,7.98 0.04,2.67 1.84,5.06 1.72,7.79 0.02,3.56 -1.18,7.45 2.07,9.39 2,1.42 5.11,2.26 5.71,4.82 0.07,3.9 -5.95,3.86 -7.03,7.46 -0.7,1.71 -0.82,3.63 -1.18,5.42 -0.53,2.79 -1.06,5.46 0.38,6.95 1.09,1.18 2.78,1.73 4.17,2.5 2.41,1.07 3.42,3.47 3.82,5.92 0.35,1.52 0.82,3.28 2.67,3.06 1.54,-0.05 4.07,-0.88 5.78,-0.08 1.55,0.61 2.62,2.56 1.65,4.08 -0.86,1.34 -2.39,2.18 -3.61,3.2 -2.22,1.77 -3.38,4.6 -5.35,6.21 -1.03,0.94 -2.33,1.77 -2.61,3.22 -0.3,1.4 0,3 0.01,4.45 0.09,3.02 -0.04,5.62 2.76,6.55 3.67,1.79 10.59,0.46 10.97,3.98 -0.83,3.25 -5.01,5.11 -7.13,7.62 -0.77,0.86 -1.32,1.87 -1.44,3.02 -0.53,3.19 2.3,6.98 0.1,8.95 -1.58,1.43 -4.52,1.09 -6.22,2.22 -2.31,1.35 -0.11,3.6 1.04,4.94 3.05,3.35 3.03,8.38 4.93,12.51 0.54,1.23 1.17,2.42 1.53,3.7 1.42,4.21 -3.92,10.05 2.38,11.77 2.4,0.37 5.43,-1.65 8.01,-0.69 2.34,0.64 4.77,2.99 7.11,3.09 2.16,0.14 4.23,-0.88 6.4,-0.72 2.25,0.07 4.47,1.39 6.74,1.35 2.35,0.01 4.64,-1.9 6.62,-2.14 1.15,-0.18 2.39,0.3 3.48,0.7 3.15,1.54 6.18,-0.09 9.14,-1.32 2.76,-0.79 5.88,-0.63 8.51,-0.55 3.29,-0.05 4.8,-4.61 4.14,-7.3 -0.11,-2.94 2.29,-6.81 4.42,-9.21 3.16,-3.44 7.22,0.52 10.44,1.67 3.87,1.77 8.54,3.21 12.8,3.01 1.68,0.41 2.97,1.08 4.22,-0.19 4.66,-6.83 4.15,-4.28 11.2,-5.06 1.33,-0.28 2.62,-0.88 3.97,-0.84 2.7,0.32 5.2,1.73 8.02,0.18 3.07,-1.91 6.86,-1.92 9.93,0.11 3.9,2.22 7.27,5.41 6.77,10.04 -0.99,6.43 1.64,5.03 6.23,6.28 4.36,2.22 7.77,6.42 8.19,11.44 1.43,4.74 3.09,9.24 4.62,13.77 3.16,5.25 7.62,10.71 13.86,11.83 3.33,0.66 6.22,1.93 9.11,0.36 8.53,-6.16 -2.4,-7.21 16.54,-11.46 2.55,-0.89 3.99,-3.59 6.28,-4.82 2.15,-0.83 3.4,0.44 6.09,0.13 4.97,-0.77 10.51,-0.59 15.55,-1.33 4.21,-0.44 8.3,-1.29 12.06,0.86 3.35,2.46 6.25,6.75 10.93,5.11 4.78,-1.38 10.01,0.39 13.85,3.37 1.14,1.17 -0.07,1.59 -1.16,2.3 -0.72,0.4 -1.48,0.85 -2.19,1.3 -1.93,1.17 -3.4,2.77 -5.02,3.78 -1.74,1.09 -3.65,1.62 -5.26,3.47 -2.32,2.45 -2.79,7.12 -6.18,8.35 -1.87,0.5 -4.75,-1.4 -6.75,-0.86 -1.72,0.44 -3.08,1.98 -4.37,3.08 -0.78,0.78 -2,0.86 -2.49,-0.15 -0.42,-0.8 -0.47,-1.86 -0.93,-2.67 -0.62,-1.15 -1.79,-1.63 -3.42,-2.35 -4.59,-1.52 -9.92,-5.03 -14.51,-5.95 -1.57,-0.21 -3.27,-0.04 -4.73,-0.76 -3.97,-3.39 -7.94,-2.42 -13,-1.72 -4.25,0.69 -8.06,4.78 -10.85,7.16 -1.36,1.34 -3.12,2.26 -5.07,1.99 -2.98,-0.18 -6.58,-0.08 -9.54,-1.57 -1.61,-0.77 -2.98,-2.34 -4.47,-2.61 -1.19,-0.21 -2.11,-0.16 -3.29,-1.69 -0.43,-0.58 -0.84,-1.35 -1.19,-2.05 -1.27,-2.75 -2.94,-5.11 -5.46,-7.38 -1.52,-1.47 -3.63,-2.55 -5.56,-3.22 -1.19,-0.51 -2.58,-1.07 -1.94,-2.52 0.98,-2.41 3.32,-4.86 2.71,-7.67 -0.98,-3.91 -2.12,-7.81 -5.34,-10.11 -2.93,-2.38 -6.05,-2.6 -9.58,-1.39 -2.55,0.46 -5.31,0.81 -7.06,2.86 -1.71,1.79 -2.34,3.95 -2.27,6.49 0.03,1.55 -0.6,2.94 -2.16,3.46 -3.27,0.79 -6.47,1.7 -9.88,1.07 -2.7,-0.56 -4.85,-2.72 -7.34,-3.78 -2.03,-0.95 -4.35,-1.02 -6.58,-1.2 -2.58,-0.18 -5.27,-1.13 -7.18,-0.36 -3.2,1.62 -5.44,7.39 -5.38,10.18 0.08,0.62 0.71,0.65 1.24,0.46 0.69,-0.19 1.6,-0.59 2.31,-0.58 1.51,0.03 1.8,2.19 1.83,3.48 0.04,4.87 -2.41,9.5 -5.3,13.55 -4.44,5.71 -12.77,0.12 -18.54,-0.82 -13.07,-3.79 -25.98,-7.49 -39.01,-11.3 -7.47,-1.93 -16.54,-5.49 -24.79,-6.54 -19.14,-0.48 -38.03,0.92 -57.24,1.27 -19.01,0.42 -37.88,0.62 -56.91,0.74 -38.77,0.66 -78.12,1.11 -116.97,1 -16.01,-0.91 -14.42,1.76 -14.09,16 0.24,14.34 0.43,29.15 0.62,43.4 0,2.36 0.21,5.02 -1.35,6.77"
           vector-effect="none"
           id="path6071"
           style="display:inline" />
        <path
           class="cls-4"
           d="m 303.28,232.5 c -3.15,-0.15 -5.46,-4.19 -9.44,-9.72 -2.13,-3.03 -4.28,-6.05 -6.47,-9.15 -6.38,-9.03 -13.88,-19.64 -19.39,-27.44 -5.8,-8.31 -8.58,-11.61 -11.38,-18.16 -16.89,-36.52 15.08,-81.28 55.19,-74.57 33.98,4.29 55.05,44.13 40.11,74.9 -7.35,15.21 -18.41,28.14 -28.1,41.88 -5.69,6.68 -12.32,20.91 -20.31,22.27 h -0.22 z M 287.67,130.85 c -11.27,11.81 -5.41,33 10.48,37.12 15.7,5.14 31.85,-9.59 28.51,-25.82 -2.63,-17.97 -26.57,-24.99 -38.68,-11.63 l -0.3,0.33 z"
           id="path6073"
           style="display:inline" />
        <path
           class="cls-3"
           d="m 1409.32,684.69 v -12.74 c 2.16,0.14 4.23,-0.88 6.4,-0.72 2.25,0.07 4.47,1.39 6.74,1.35 2.35,0.01 4.64,-1.9 6.62,-2.14 1.15,-0.18 2.39,0.3 3.48,0.7 3.15,1.54 6.18,-0.09 9.14,-1.32 2.76,-0.79 5.88,-0.63 8.51,-0.55 3.29,-0.05 4.8,-4.61 4.14,-7.3 -0.11,-2.94 2.29,-6.81 4.42,-9.21 3.16,-3.44 7.22,0.52 10.44,1.67 3.87,1.77 8.54,3.21 12.8,3.01 1.68,0.41 2.97,1.08 4.22,-0.19 4.66,-6.83 4.15,-4.28 11.2,-5.06 1.33,-0.28 2.62,-0.88 3.97,-0.84 2.7,0.32 5.2,1.73 8.02,0.18 3.07,-1.91 6.86,-1.92 9.93,0.11 3.9,2.22 7.27,5.41 6.77,10.04 -0.99,6.43 1.64,5.03 6.23,6.28 4.36,2.22 7.77,6.42 8.19,11.44 1.43,4.74 3.09,9.24 4.62,13.77 3.16,5.25 7.62,10.71 13.86,11.83 3.33,0.66 6.22,1.93 9.11,0.36 8.53,-6.16 -2.4,-7.21 16.54,-11.46 2.55,-0.89 3.99,-3.59 6.28,-4.82 2.15,-0.83 3.4,0.44 6.09,0.13 4.97,-0.77 10.51,-0.59 15.55,-1.33 4.21,-0.44 8.3,-1.29 12.06,0.86 3.35,2.46 6.25,6.75 10.93,5.11 4.78,-1.38 10.01,0.39 13.85,3.37 1.14,1.17 -0.07,1.59 -1.16,2.3 -0.72,0.4 -1.48,0.85 -2.19,1.3 -1.93,1.17 -3.4,2.77 -5.02,3.78 -1.74,1.09 -3.65,1.62 -5.26,3.47 -2.32,2.45 -2.79,7.12 -6.18,8.35 -1.87,0.5 -4.75,-1.4 -6.75,-0.86 -1.72,0.44 -3.08,1.98 -4.37,3.08 -0.78,0.78 -2,0.86 -2.49,-0.15 -0.42,-0.8 -0.47,-1.86 -0.93,-2.67 -0.62,-1.15 -1.79,-1.63 -3.42,-2.35 -4.59,-1.52 -9.92,-5.03 -14.51,-5.95 -1.57,-0.21 -3.27,-0.04 -4.73,-0.76 -3.97,-3.39 -7.94,-2.42 -13,-1.72 -4.25,0.69 -8.06,4.78 -10.85,7.16 -1.36,1.34 -3.12,2.26 -5.07,1.99 -2.98,-0.18 -6.58,-0.08 -9.54,-1.57 -1.61,-0.77 -2.98,-2.34 -4.47,-2.61 -1.19,-0.21 -2.11,-0.16 -3.29,-1.69 -0.43,-0.58 -0.84,-1.35 -1.19,-2.05 -1.27,-2.75 -2.94,-5.11 -5.46,-7.38 -1.52,-1.47 -3.63,-2.55 -5.56,-3.22 -1.19,-0.51 -2.58,-1.07 -1.94,-2.52 0.98,-2.41 3.32,-4.86 2.71,-7.67 -0.98,-3.91 -2.12,-7.81 -5.34,-10.11 -2.93,-2.38 -6.05,-2.6 -9.58,-1.39 -2.55,0.46 -5.31,0.81 -7.06,2.86 -1.71,1.79 -2.34,3.95 -2.27,6.49 0.03,1.55 -0.6,2.94 -2.16,3.46 -3.27,0.79 -6.47,1.7 -9.88,1.07 -2.7,-0.56 -4.85,-2.72 -7.34,-3.78 -2.03,-0.95 -4.35,-1.02 -6.58,-1.2 -2.58,-0.18 -5.27,-1.13 -7.18,-0.36 -3.2,1.62 -5.44,7.39 -5.38,10.18 0.08,0.62 0.71,0.65 1.24,0.46 0.69,-0.19 1.6,-0.59 2.31,-0.58 1.51,0.03 1.8,2.19 1.83,3.48 0.04,4.87 -2.41,9.5 -5.3,13.55 -4.44,5.71 -12.77,0.12 -18.54,-0.82 -13.07,-3.79 -25.98,-7.49 -39.01,-11.3 -1.67,-0.43 -3.42,-0.94 -5.22,-1.49 v -11.32 z"
           id="path6075"
           style="display:inline;fill:#1ca4ed;fill-opacity:1" />
      </g>
      <g
         id="g6115">
        <g
           id="g6083">
          <path
             class="cls-7"
             d="M564.81,613.79c-7.46,0-16.38-4.71-24.26-8.87-3.41-1.8-6.62-3.5-9.42-4.66l-.12-.05c-10.08-4.76-20.35-7.41-32.23-10.48-1.71-.44-3.45-.89-5.22-1.35l-1.98-.48c-4.71-1.14-9.16-2.22-13.88-2.25h-.62c-.73.02-1.52.03-2.34.03-5.54,0-11.6-.54-14.52-4.54-1.66-2.27-1.94-5.16-.85-8.58.92-2.73,2.59-5.01,4.21-7.21,1.17-1.59,2.27-3.09,3.02-4.65,4.8-10.45,4.34-22.38,3.9-33.93-.04-1.04-.08-2.07-.12-3.1-.79-16.36.37-33.01,1.5-49.11,1.41-20.19,2.87-41.07.41-61.33-1.58-6.78,1.69-12.84,8.55-15.89,2.86-1.44,6.06-2.67,9.15-3.85,3.58-1.37,7.29-2.79,10.41-4.53,1.46-.85,2.86-1.75,4.21-2.62,2.28-1.47,4.63-2.98,7.62-4.48.72-.43,1.51-.86,2.33-1.32,3.49-1.95,8.76-4.9,9.05-7.44.15-1.3-1.19-2.82-2.36-3.88-2.91-2.39-6.3-4.18-9.88-6.07-2.74-1.45-5.57-2.94-8.21-4.75-14.46-8.97-28.56-17.56-41.88-25.55-.72-.42-1.49-.82-2.25-1.23-2.6-1.38-5.28-2.8-7.5-5.33-6.26-7.43-4.93-16.12-3.76-23.79.65-4.27,1.27-8.3.75-12.05-1.17-10.31-.42-16.31,2.43-19.5,1.41-1.58,3.32-2.42,5.52-2.42,3.91,0,8.86,2.64,15.59,8.3l.1.08c21.7,16.57,45.74,31.69,68.99,46.31,22.79,14.33,46.36,29.15,67.76,45.36,5.69,3.93,11.16,5.83,16.72,5.83h0c3.71,0,6.96-.83,9.84-1.56,2.34-.59,4.54-1.15,6.61-1.15,2.39,0,4.4.77,5.98,2.29l.35.33.23.42c1.05,1.97.82,4.15.69,5.33-.29,2.1-.67,4.33-1.08,6.69-.66,3.84-1.35,7.8-1.63,11.21-.68,10.96-.12,22.68.43,34.01.39,8.09.79,16.45.73,24.42-.07,5.45-.33,10.81-.59,16-.42,8.61-.83,16.74-.43,25.38.04,1.54.09,3.06.13,4.61.19,6.65.4,13.53.32,20.22-.03,1-.06,1.94-.08,2.87-.2,7.49-.4,15.24-3.31,22.71-2.54,6.62-7.9,10.23-13.08,13.73-2.46,1.66-4.78,3.23-6.77,5.08l-.08.08c-9.13,7.89-18.49,15.91-27.54,23.67-4.88,4.18-9.77,8.37-14.65,12.56-1.01.88-1.97,1.87-3,2.91-2.92,2.98-5.93,6.05-10.58,7.19l-.1.02c-1.02.21-2.11.32-3.25.32ZM547.56,386.58c-2.54,0-5.28,1.26-7.73,3.56l-.1.1-.11.09c-1.1.85-2.19,1.63-3.24,2.38-5.08,3.64-8.43,6.04-8.33,12.27v.12c-.31,13.49-1.22,27.29-2.11,40.64-.91,13.71-1.85,27.88-2.13,41.67-.11,3.81-.25,7.68-.4,11.59-.43,11.78-.88,23.96-.47,35.04v.1c.03,9.12,2.11,12.26,10.1,15.27,6.02,2.37,12.51,4.16,18.79,5.9,4.66,1.29,9.48,2.62,14.11,4.19,2.54.87,5.11,1.9,7.6,2.9,3.71,1.48,7.54,3.02,11.21,4.02l.16.05c.77.26,1.49.39,2.15.39,1.24,0,2.28-.47,3.17-1.44,1.73-1.88,2.71-5.46,2.43-8.92l-.08-1.02c-.35-4.5-.68-8.76-.42-13.33.51-13.05,1.18-26.5,1.83-39.51.73-14.53,1.48-29.56,2.01-44.21.08-2.36.17-4.79.26-7.25.34-9.02.69-18.35.39-26.89v-.11c.03-8.48-2.3-9.81-9.2-13.78-.87-.5-1.79-1.03-2.75-1.6-3.27-2.04-6.77-4.12-10.16-6.13-3.69-2.19-7.51-4.45-11.12-6.72-1.88-1.15-3.62-2.53-5.32-3.87-2.46-1.95-4.79-3.8-7.39-4.83l-.11-.04c-1.04-.41-2.04-.6-3.05-.6Z"
             id="path6079" />
          <path
             class="cls-6"
             d="M456.5,271.56c3.12,0,7.64,2.52,13.7,7.63l.15.12c43.18,32.97,93.73,59.07,136.83,91.73,7.18,4.97,13.3,6.4,18.48,6.4,7.12,0,12.49-2.71,16.45-2.71,1.5,0,2.79.39,3.91,1.45.57,1.07.49,2.37.36,3.6-.71,5.21-2.24,12.3-2.71,17.97-1.2,19.14,1.3,39.67,1.15,58.65-.18,14.07-1.67,27.32-1.02,41.55.21,7.73.54,16.45.45,24.65-.27,8.5-.13,16.68-3.19,24.53-3.33,8.66-12.68,11.72-19.1,17.7-13.96,12.06-28.1,24.12-42.19,36.22-4.05,3.54-7.07,8.17-12.34,9.46-.84.18-1.72.26-2.63.26-9.72,0-23.1-9.36-32.52-13.3-11.82-5.58-23.93-8.34-37.97-12.02-5.63-1.34-10.83-2.79-16.6-2.83-.89.01-1.91.03-2.98.03-6.52,0-15.2-.79-12.5-9.2,1.36-4.04,5.12-7.4,7.08-11.47,5.56-12.12,4.52-25.57,4.08-38.44-1.78-36.88,6.36-74.1,1.87-110.87-1.42-5.78,1.66-10.36,6.87-12.64,6.01-3.04,13.66-5.09,19.74-8.47,4.16-2.42,7.15-4.77,11.8-7.08,6.66-3.93,18.93-9.1,9.54-17.55-5.54-4.56-12.55-7.04-18.41-11.06-13.83-8.57-27.88-17.16-41.98-25.61-3.19-1.85-6.57-3.15-9.03-5.96-8.44-10.01-.71-22.85-2.29-34.27-1.39-12.25.07-18.5,4.99-18.51M587.08,569.84c6.29,0,9.09-7.4,8.59-13.6-.37-4.76-.76-9.23-.5-13.94,1.08-27.7,2.83-55.97,3.84-83.77.36-11.09,1.04-23.35.65-34.36.04-11.47-4.68-12.77-13.42-17.97-6.72-4.2-14.29-8.45-21.22-12.81-4.47-2.74-8.25-6.99-13.2-8.96l-.18-.07c-1.37-.54-2.75-.79-4.09-.79-3.62,0-7.03,1.79-9.78,4.37-6.35,4.92-12.88,7.72-12.72,17.07-.62,27.28-3.7,55.03-4.23,82.32-.44,15.18-1.42,31.91-.87,46.81.03,9.95,2.51,14.48,12.04,18.07,10.59,4.16,22.21,6.48,33,10.12,6.19,2.13,12.63,5.24,18.99,6.97,1.11.37,2.14.54,3.09.54M456.5,265.56h0c-3.08,0-5.76,1.18-7.76,3.42-3.52,3.94-4.47,10.45-3.18,21.76v.07s.02.07.02.07c.46,3.32-.13,7.14-.74,11.18-1.21,7.89-2.71,17.71,4.39,26.13l.04.04.04.04c2.58,2.94,5.64,4.56,8.35,6,.76.4,1.47.78,2.15,1.17,13.28,7.96,27.32,16.53,41.75,25.47,2.76,1.88,5.65,3.41,8.44,4.88,3.42,1.81,6.65,3.51,9.32,5.69.7.64,1.05,1.1,1.22,1.37-1.05,1.51-5.46,3.97-7.41,5.06-.8.45-1.56.87-2.29,1.3-3.1,1.55-5.49,3.1-7.82,4.59-1.37.88-2.66,1.71-4.09,2.55-2.92,1.62-6.51,2.99-9.97,4.32-3.14,1.2-6.38,2.45-9.36,3.94-8.04,3.6-12.02,11.05-10.22,19.11,2.39,19.92.95,40.6-.45,60.61-1.13,16.18-2.3,32.9-1.5,49.47.04,1.02.07,2.04.11,3.07.45,11.68.87,22.72-3.62,32.56-.63,1.29-1.64,2.67-2.71,4.12-1.67,2.28-3.57,4.86-4.62,7.99v.04s-.02.04-.02.04c-1.75,5.46-.27,9.14,1.28,11.26,3.71,5.09,10.64,5.77,16.94,5.77.84,0,1.64-.01,2.39-.02h.61c4.35.03,8.42,1.02,13.13,2.16.66.16,1.32.32,1.99.48,1.75.46,3.47.9,5.16,1.34,11.74,3.03,21.88,5.65,31.7,10.29l.12.06.12.05c2.67,1.12,5.83,2.78,9.17,4.55,8.18,4.32,17.46,9.21,25.66,9.21,1.34,0,2.65-.13,3.87-.39l.1-.02.1-.02c5.47-1.35,8.94-4.88,12-8.01.97-.99,1.89-1.93,2.83-2.75,4.86-4.18,9.74-8.35,14.6-12.52,9.06-7.77,18.43-15.8,27.58-23.69l.09-.07.08-.08c1.82-1.69,4.04-3.2,6.4-4.79,5.31-3.58,11.32-7.64,14.21-15.15,3.09-7.93,3.3-15.94,3.5-23.7.02-.93.05-1.86.08-2.79v-.06s0-.06,0-.06c.07-6.74-.13-13.64-.32-20.32-.05-1.55-.09-3.07-.13-4.56v-.06s0-.06,0-.06c-.39-8.5,0-16.57.43-25.1.26-5.21.52-10.6.59-16.09.07-8.08-.34-16.49-.73-24.62-.54-11.23-1.1-22.84-.43-33.68.27-3.26.94-7.13,1.59-10.88.41-2.39.8-4.64,1.08-6.71v-.09s.02-.09.02-.09c.15-1.39.45-4.27-1.03-7.05l-.45-.85-.69-.66c-2.16-2.07-4.87-3.12-8.06-3.12-2.44,0-4.83.6-7.35,1.24-2.84.72-5.77,1.46-9.1,1.46-4.92,0-9.81-1.72-14.97-5.27-21.49-16.27-45.09-31.12-67.92-45.47-23.18-14.58-47.16-29.65-68.77-46.15l-.04-.03c-7.37-6.2-12.77-8.97-17.47-8.97h0ZM587.08,563.84c-.33,0-.74-.08-1.2-.23l-.16-.05-.16-.04c-3.5-.95-7.25-2.45-10.88-3.91-2.53-1.01-5.14-2.06-7.73-2.95-4.74-1.6-9.6-2.94-14.3-4.24-6.49-1.8-12.62-3.49-18.45-5.78l-.04-.02-.04-.02c-6.84-2.57-8.13-4.56-8.16-12.47v-.1s0-.1,0-.1c-.41-10.97.04-23.1.47-34.82.14-3.83.29-7.8.4-11.59v-.03s0-.03,0-.03c.27-13.72,1.21-27.86,2.12-41.53.89-13.38,1.81-27.21,2.11-40.77v-.12s0-.12,0-.12c-.07-4.43,1.76-5.97,7.07-9.78,1.07-.77,2.18-1.56,3.33-2.45l.22-.17.2-.19c1.89-1.77,3.91-2.74,5.68-2.74.64,0,1.25.12,1.88.37l.06.02.06.02.11.04c2.17.88,4.31,2.58,6.58,4.37,1.75,1.39,3.56,2.82,5.61,4.08,3.64,2.29,7.47,4.55,11.16,6.75,3.53,2.09,6.85,4.06,10.04,6.05l.06.04.06.03c.98.58,1.91,1.12,2.79,1.62,6.54,3.75,7.71,4.43,7.69,11.16v.11s0,.11,0,.11c.29,8.44-.06,17.71-.39,26.68-.09,2.46-.18,4.9-.26,7.28-.53,14.6-1.28,29.62-2.01,44.14-.65,13-1.32,26.44-1.83,39.54-.26,4.75.08,9.09.43,13.68l.08,1c.24,2.96-.64,5.59-1.64,6.67-.4.44-.66.47-.96.47h0Z"
             id="path6081" />
        </g>
        <g
           id="g6089">
          <path
             class="cls-7"
             d="M312.78,631.6c-4.53-.04-7.84-2.22-11.04-4.32-.71-.47-1.43-.94-2.17-1.39-17.59-9.66-36.71-17.31-58.45-23.39-1-.21-2.05-.39-3.16-.58-4.72-.81-10.06-1.72-12.82-5.75-1.63-2.38-2.06-5.49-1.3-9.24l.03-.14c.78-3.04,2.69-5.1,4.22-6.76.37-.4.72-.78,1.05-1.17,1.08-1.26,1.81-2.87,2.46-5.39,5-24.81,4.69-51.21,4.39-76.73-.25-21.4-.51-43.54,2.33-64.81v-.1s.03-.1.03-.1c1.14-5.64,3.22-8.14,8.93-10.67,2.13-1.02,4.38-2.04,6.77-3.12,6.8-3.08,13.83-6.26,19.59-10.26,11.95-7.79,22.14-14.71,31.23-21.19,1.16-.86,2.35-1.83,3.62-2.84,5.33-4.28,11.37-9.14,19.04-9.14,1.35,0,2.73.15,4.09.45,7.18,1.58,13.92,4.94,20.44,8.19,5.97,2.98,11.61,5.79,17.54,7.34l.11.03.28.1c3.23,1.1,6.37,2.77,9.41,4.38,3.6,1.91,7.01,3.72,10.38,4.55l.6.16c2.26.58,4.81,1.24,7.07,2.73,8.71,5.29,7.87,23.95,7.26,37.58-.15,3.39-.28,6.31-.23,8.37v.14c-.32,16.22-1.17,32.87-1.98,48.98-1.26,24.84-2.57,50.53-2,75.52v.16c-.08,2.69-.17,5.47-1.83,8.13-3.05,5.02-8.57,6.93-13.43,8.61-2.24.78-4.36,1.51-6.14,2.48l-.11.06c-19.79,9.83-40.05,22.69-58.58,37.21l-.21.17-.24.13c-1.98,1.04-4.38,1.61-6.75,1.61-.14,0-.28,0-.41,0ZM299.6,573.07c2.42,1.04,4.53,1.6,6.78,2.19,2,.53,4.07,1.07,6.3,1.97,2.25.96,4.44,2.03,6.57,3.06,4.67,2.27,9.49,4.63,14.32,5.56l.17.04c.62.16,1.25.24,1.87.24,4.71,0,8.77-4.65,10.02-9.19,2.08-11.59,1.99-23.79,1.91-35.59v-.98c-.03-2.14-.06-4.28-.09-6.42-.1-6.38-.2-12.98.09-19.48.15-3.39.64-6.76,1.11-10.03.31-2.16.63-4.39.84-6.54.84-14.46,1.64-35.13.72-51.6-.18-2.56-.61-6.24-2.26-8.18-1.62-1.57-4.57-2.53-7.43-3.47-1.26-.42-2.57-.84-3.79-1.33-5.88-2.17-12.39-3.94-18.02-5.43l-.14-.04c-2.23-.71-4.47-1.71-6.85-2.78-4.11-1.85-8.37-3.76-12.07-3.76-2.26,0-4.1.71-5.78,2.24-2.18,2.23-3.48,5.44-4,9.81-.72,8.98-.43,18.85-.1,27.39l.16,3.51c.83,17.75,1.61,34.51-.81,51.99-1.21,10.54-1.05,21.5-.89,32.09.07,4.65.14,9.46.1,14.2v.51c0,1.42-.01,3.53.47,4.38,1.47,1.75,4.34,2.92,7.11,4.05,1.23.5,2.51,1.02,3.68,1.6Z"
             id="path6085" />
          <path
             class="cls-6"
             d="M327.53,377.53c1.11,0,2.25.12,3.44.38,13.09,2.89,24.86,12.1,37.86,15.51l.17.06c6.72,2.3,13.29,7.33,20.05,9.01,2.33.61,4.78,1.17,6.79,2.51,9.22,5.49,5.37,33.44,5.63,43.5-.81,41.11-4.93,83.25-3.99,124.63-.09,2.77-.2,4.75-1.38,6.64-3.76,6.17-12.46,6.76-18.46,10.05-20.76,10.31-40.99,23.35-59.1,37.53-1.6.84-3.51,1.27-5.36,1.27-.11,0-.22,0-.33,0-4.65-.05-7.88-2.94-11.79-5.31-18.88-10.38-38.37-17.88-59.24-23.7-7.45-1.6-17.24-1.38-15.05-12.05.76-2.96,3.05-4.83,4.66-6.75,1.63-1.9,2.47-4.23,3.09-6.65,9.29-45.99.56-95.36,6.77-141.81.95-4.72,2.42-6.4,7.21-8.52,8.61-4.12,18.84-8.1,26.85-13.66,10.47-6.83,21.07-13.94,31.26-21.21,6.45-4.8,12.7-11.42,20.92-11.42M335.61,589.12c6.25,0,11.4-5.67,12.95-11.53,2.21-12.22,2.06-24.76,1.97-37.25-.08-8.61-.38-17.21,0-25.75.25-5.49,1.42-11.01,1.95-16.47.93-16.1,1.61-36.15.72-52-.24-3.37-.81-7.43-2.98-9.98l-.1-.11c-2.93-2.92-8.24-3.9-12.28-5.52-6.03-2.23-12.51-4-18.37-5.55-6.04-1.91-13.23-6.68-19.82-6.68-2.77,0-5.43.84-7.87,3.08-3.14,3.17-4.41,7.41-4.9,11.67-.72,8.95-.47,18.56-.11,27.8.88,19.23,1.91,36.64-.62,54.98-1.78,15.49-.67,31.16-.82,46.67,0,2.24-.11,5,1.04,6.68,2.69,3.38,8.1,4.68,11.96,6.61,4.93,2.14,8.76,2.42,13.23,4.22,6.98,2.98,13.94,7.34,21.44,8.78.89.22,1.76.33,2.61.33M327.54,371.53h0c-8.73,0-15.21,5.21-20.92,9.8-1.22.98-2.38,1.92-3.53,2.77-9.03,6.44-19.17,13.32-31,21.03l-.07.05-.07.05c-5.53,3.84-12.44,6.97-19.11,9.99-2.27,1.03-4.61,2.09-6.83,3.15-6.57,2.93-9.24,6.17-10.57,12.78l-.04.19-.03.2c-2.87,21.48-2.61,43.73-2.35,65.24.3,25.34.61,51.55-4.31,76.03-.52,2-1.06,3.23-1.8,4.09l-.02.02-.02.02c-.27.32-.6.68-.96,1.07-1.67,1.8-3.95,4.27-4.92,8.05l-.04.14-.03.14c-.94,4.58-.35,8.46,1.76,11.54,3.47,5.08,9.75,6.15,14.79,7.01,1.04.18,2.03.35,2.95.54,21.45,6,40.32,13.55,57.66,23.07.67.41,1.33.84,2.03,1.3,3.21,2.11,7.21,4.74,12.66,4.81.15,0,.29,0,.44,0,2.89,0,5.71-.68,8.15-1.96l.48-.25.43-.34c18.37-14.39,38.45-27.15,58.07-36.88l.11-.05.1-.06c1.55-.85,3.56-1.54,5.68-2.28,5.07-1.76,11.38-3.94,15.01-9.88,2.07-3.34,2.17-6.67,2.27-9.6v-.16s0-.16,0-.16c-.57-24.88.74-50.51,2-75.3.82-16.13,1.67-32.81,1.99-49.07v-.14s0-.14,0-.14c-.05-1.95.08-4.83.23-8.16.68-15.16,1.53-34.02-8.65-40.25-2.66-1.74-5.58-2.49-7.93-3.1l-.56-.14h-.04s-.04-.02-.04-.02c-3.01-.75-6.26-2.47-9.7-4.29-3.14-1.67-6.39-3.39-9.86-4.57l-.15-.05-.22-.07-.22-.06c-5.63-1.47-11.13-4.22-16.96-7.12-6.68-3.33-13.59-6.77-21.13-8.44-1.57-.35-3.17-.52-4.73-.52h0ZM295.95,425.7c1.1-.98,2.22-1.4,3.7-1.4,3.06,0,7.01,1.78,10.84,3.49,2.35,1.05,4.78,2.14,7.17,2.9l.14.04.14.04c5.55,1.47,11.94,3.21,17.75,5.35,1.28.51,2.61.95,3.89,1.37,2.34.77,4.98,1.63,6.16,2.67.53.72,1.18,2.4,1.46,6.34.91,16.3.11,36.79-.72,51.16-.2,2.06-.5,4.14-.82,6.34-.48,3.33-.98,6.78-1.14,10.32-.29,6.59-.19,13.23-.09,19.66.03,2.14.07,4.28.08,6.42v.96c.09,11.62.17,23.63-1.83,34.91-.96,3.34-3.9,6.86-7.09,6.86-.37,0-.75-.05-1.14-.15l-.17-.04-.17-.03c-4.44-.85-8.88-3.02-13.57-5.31-2.16-1.05-4.38-2.14-6.64-3.1l-.06-.03-.06-.02c-2.41-.97-4.57-1.54-6.66-2.08-2.11-.55-4.1-1.08-6.28-2.01-1.25-.61-2.55-1.14-3.81-1.66-2.1-.86-4.45-1.81-5.61-2.86-.11-.68-.11-1.97-.1-2.78v-.51c.05-4.76-.03-9.58-.1-14.25-.16-10.48-.32-21.32.87-31.71,2.45-17.73,1.66-34.61.83-52.47l-.16-3.53c-.32-8.4-.61-18.14.09-26.94.43-3.61,1.45-6.21,3.1-7.94h0Z"
             id="path6087" />
        </g>
        <g
           id="g6095">
          <path
             class="cls-7"
             d="M1024.84,606.31c-1.52,0-3.09-.23-4.67-.69-3.39-.87-6.39-2.43-9.3-3.94-1.03-.53-2.05-1.07-3.09-1.57-9.9-4.7-21.02-7.18-32.15-7.18-1.57,0-3.15.05-4.7.15-10.54.69-20.55,3.57-29.81,6.58l-.15.04c-1.29.35-2.83.88-4.46,1.44-4.21,1.45-8.97,3.1-13.41,3.1-2.87,0-5.32-.71-7.28-2.12l-.17-.12-.15-.14c-1.57-1.49-2.94-4.24-.57-8.87,2.29-4.45,7.29-11.62,11.39-17.37,3.05-4.17,6.06-8.32,9.06-12.48,8.55-11.83,17.38-24.07,26.82-35.64l.08-.09c5.94-6.73,8.55-11.51,7.97-14.63-.66-3.6-6.2-6.5-13.2-10.17-2.17-1.14-4.42-2.32-6.81-3.66l-.5-.26c-4.42-2.32-8.24-4.32-12.53-5.8-.67-.24-1.35-.47-2.03-.7-5.82-1.97-13.06-4.43-16.22-11.27-2.75-6.41-2.01-13.12-1.29-19.6.34-3.04.65-5.91.61-8.64v-.1c.09-5.15-.08-10.43-.24-15.53-.3-9.51-.61-19.34.68-29.09.85-5.75,2.75-7.77,7.64-10.56l23.25-14.42c3.06-1.88,4.9-3.01,7.43-5.34,2.65-2.42,5.38-4.79,8.02-7.08,2.57-2.22,5.23-4.52,7.79-6.86.88-.81,1.76-1.74,2.69-2.73,3.25-3.46,6.93-7.38,12.55-7.38,1.05,0,2.14.15,3.23.44,4.94,1.08,8.81,3.95,12.55,6.72,1.51,1.12,2.93,2.17,4.37,3.07,10.83,5.09,30.33,10.54,47.75,10.54,11.03,0,19.42-2.28,24.26-6.58,2.79-3.14,4.79-7.8,6.55-11.92l.04-.1c.83-2.14,1.14-3.8.96-5.31v-.14c-.24-3.06-2.43-6.04-4.75-9.21-3.73-5.09-8.38-11.42-3.36-18.95,2.74-3.93,7.93-6.35,13.59-6.35,1.17,0,2.32.11,3.42.31,3.75.79,7.04,3.24,9.56,7.09l.1.15c5.83,8.54,5.7,19.89-.42,33.7-2.32,5.24-5,10.79-8.9,15.81-1.14,1.47-2.34,2.88-3.5,4.24-1,1.18-2.04,2.4-3.01,3.62-6.46,8.35-12.31,17.3-17.96,25.96-6.81,10.42-13.84,21.2-22.02,31.01-1.59,1.79-2.26,3.25-2.05,4.4.2,1.09,1.35,2.89,5.73,5.24,4.84,2.73,9.9,5.2,14.79,7.6l1.5.74c4.14,2.03,8.18,4.02,12.12,6.15,4.39,2.22,9.9,5.59,12.97,11.63,1.61,2.93,2.65,6.03,3.04,9.11,1.8,14.79.9,42.45.06,61.97-.11,1.86-.18,3.56-.25,5.16-.7,15.95-1.79,22.59-21.86,26.51-7.05,1.73-14,5.89-20.72,9.91l-2.17,1.29-.52.33c-5.04,3.14-9.8,6.11-13.44,10.14-3.05,3.58-7.98,8.42-14.93,8.42ZM1020.45,555.53c5.08.87,9.98,2.96,14.73,4.99,3.34,1.43,6.49,2.77,9.66,3.71l.13.04c.52.18.99.27,1.38.27h0c.51,0,.86-.15,1.22-.52,1.3-1.34,2.09-4.98,1.96-9.07-.07-4.87-.31-9.96-.55-14.88-.23-4.65-.46-9.46-.55-14.16-.08-2.86.21-5.68.49-8.4.14-1.36.28-2.65.37-3.94.24-4.44-.82-10.38-2.58-14.38-.59-1.29-1.45-2.35-2.75-3.38-3.59-2.81-10.36-6.61-15.15-9.22-1.42-.73-2.72-1.55-3.87-2.28-1.29-.82-2.41-1.52-3.6-2.06l-.12-.05c-.86-.36-1.72-.54-2.58-.54-4.87,0-9.38,6.08-13,10.97-.73.98-1.43,1.92-2.09,2.77-4.79,6.74-9.44,13.49-13.94,20.02-2.04,2.99-4.09,6.22-6.06,9.33-3.82,6.02-7.77,12.25-12.23,17.67-1.64,1.96-3.44,3.84-5.19,5.65-1.34,1.39-2.72,2.82-3.96,4.23-1.93,2.14-2.62,3.37-2.86,3.96.4.11,1.12.25,2.32.27,4.76-.03,9.57-1.09,14.67-2.21,3.3-.73,6.7-1.48,10.14-1.93,1.99-.33,4.06-.49,6.23-.49,3.2,0,6.26.36,9.51.73l.42.05c6.82.82,12.66,1.74,17.86,2.83ZM984.22,464.57c.88.5,1.8,1.03,2.73,1.57,3.05,1.77,6.2,3.6,8.82,4.68l.12.05c1.5.7,2.9,1.06,4.14,1.06h0c1.65,0,3.18-.62,4.68-1.9l.08-.07c2.27-1.79,4.41-4.37,6.21-6.65,7.52-9.69,14.82-19.94,21.88-29.86,1.62-2.28,3.24-4.55,4.86-6.82,1.17-1.99,3.17-4.2,5.27-6.54,2.81-3.11,7.42-8.23,7.17-10.76-.46-.4-2.2-1.38-8.15-1.38-3.67,0-7.83.36-11.51.68-3.15.27-5.86.51-7.95.51-.53,0-1.01-.02-1.44-.05-5.55-.14-11.29-.8-15.76-1.83-4.87-1.12-10.25-3.1-15.45-5.02-3.05-1.13-5.93-2.19-8.71-3.09-1.31-.44-5.19-1.75-8.26-1.75s-3.89,1.19-4.08,3.25c-.35,7.79.01,15.77.36,23.49.27,6.03.56,12.27.51,18.49.11,2-.08,3.95-.26,5.84-.29,2.92-.56,5.68.39,7.96,1.43,2.76,4.55,3.95,8.16,5.31,2.08.79,4.24,1.6,6.19,2.81Z"
             id="path6091" />
          <path
             class="cls-6"
             d="M1093.29,318.82c.98,0,1.94.09,2.86.26,3.27.69,5.81,3.05,7.6,5.78l.1.16c6.39,9.35,3.61,21.2-.66,30.83-2.4,5.42-4.98,10.61-8.53,15.18-2.08,2.7-4.38,5.17-6.49,7.85-14.37,18.56-25.11,39.13-39.93,56.91-5.55,6.26-2.17,10.6,4.56,14.21,5.35,3.01,10.87,5.68,16.38,8.38,4.04,1.98,8.06,3.96,12.02,6.1,4.8,2.43,9.22,5.43,11.72,10.35,1.43,2.6,2.39,5.31,2.74,8.12,1.85,15.15.77,44.5.04,61.47-1.06,18.45.92,24.85-19.76,28.87-8.3,2.02-16.26,7.09-23.77,11.55-5.28,3.29-10.59,6.53-14.65,11.04-3.55,4.17-7.54,7.43-12.7,7.43-1.23,0-2.52-.18-3.88-.58-4.23-1.07-7.97-3.44-11.88-5.32-10.36-4.91-21.98-7.48-33.45-7.48-1.64,0-3.27.05-4.89.16-10.06.66-19.83,3.24-30.54,6.72-4.65,1.25-11.48,4.44-17.09,4.44-2.07,0-3.97-.43-5.54-1.56-1.33-1.26-1.1-3.12.03-5.33,2.3-4.47,7.59-11.98,11.16-16.99,11.77-16.06,23.12-32.47,35.76-47.97,18.22-20.63,5.28-22.91-12.82-33.06-4.68-2.45-8.82-4.65-13.51-6.28-6.1-2.15-13.56-4.02-16.5-10.39-3.6-8.41-.26-18.24-.4-27.03.26-14.77-1.54-29.57.42-44.28.67-4.5,1.73-5.83,6.2-8.37,6.09-3.78,17.12-10.61,23.3-14.45,3.15-1.93,5.17-3.18,7.88-5.68,5.17-4.74,10.57-9.15,15.8-13.93,4.01-3.66,7.52-9.32,13.21-9.32.8,0,1.63.11,2.52.35,6.28,1.35,11.03,6.35,16.19,9.52,11.55,5.46,31.76,10.9,49.18,10.9,10.75,0,20.43-2.06,26.38-7.46,3.21-3.54,5.31-8.49,7.22-12.97.96-2.46,1.44-4.65,1.18-6.85-.71-9.64-15.08-16.54-8.59-26.27,2.33-3.35,6.83-5.01,11.1-5.01M1000.04,474.93c2.26,0,4.48-.79,6.62-2.61,2.49-1.97,4.74-4.64,6.71-7.15,9.31-11.99,18.1-24.59,26.9-36.91,3.05-5.31,14.59-14.18,12.72-20.15l-.05-.11c-1.37-2.36-5.74-3.04-10.9-3.04-6.84,0-15.06,1.19-19.47,1.19-.47,0-.9-.01-1.28-.04-4.65-.11-10.43-.65-15.24-1.76-7.41-1.7-16.18-5.54-23.91-8.04-2.63-.89-6.11-1.9-9.19-1.9-3.62,0-6.66,1.4-7.08,6.04-.64,14.08.98,28.07.87,42.27.31,4.96-1.62,10.28.4,14.99,2.93,5.84,10.46,6.28,15.55,9.44,3.79,2.15,8.27,4.94,11.94,6.45,1.83.85,3.63,1.34,5.41,1.34M961.57,559.56c8.47-.05,16.81-3.06,25.25-4.17,2.05-.33,3.97-.47,5.84-.47,3.15,0,6.19.37,9.58.76,5.85.7,11.92,1.6,17.65,2.8,8.13,1.37,16.06,6.26,24.09,8.62.87.3,1.65.44,2.36.44,5.32,0,6.33-7.77,6.18-12.68-.13-9.42-.92-19.36-1.1-29-.12-4.06.57-8.07.85-12.07.27-5.04-.92-11.47-2.82-15.8-.85-1.85-2.06-3.28-3.63-4.52-3.74-2.93-10.37-6.66-15.57-9.5-2.97-1.53-5.11-3.28-7.68-4.44l-.16-.07c-1.31-.54-2.56-.79-3.77-.79-7.54,0-13.2,9.49-17.49,14.95-4.78,6.73-9.37,13.38-14.01,20.11-5.99,8.77-11.49,18.72-18.14,26.8-2.79,3.33-6.18,6.51-9.08,9.81-3.96,4.39-6.57,9.06,1.65,9.21M1093.29,312.82h0c-6.63,0-12.77,2.91-16.02,7.58l-.03.05-.03.05c-6.18,9.28-.39,17.17,3.44,22.39,1.97,2.68,4,5.45,4.16,7.65v.14s.03.14.03.14c.12.96-.13,2.19-.78,3.87h0c-1.73,4.04-3.51,8.21-5.92,10.98-4.3,3.74-11.95,5.71-22.13,5.71-16.13,0-35.42-5.1-46.32-10.18-1.29-.81-2.62-1.8-4.02-2.84-3.8-2.81-8.09-6-13.63-7.23-1.32-.34-2.64-.52-3.93-.52-6.92,0-11.44,4.81-14.74,8.32-.89.95-1.73,1.84-2.52,2.56-2.53,2.32-5.17,4.6-7.73,6.81-2.66,2.3-5.41,4.68-8.08,7.13-2.33,2.14-3.97,3.15-6.97,4.99l-23.23,14.4c-5.32,3.04-8.04,5.73-9.06,12.65v.05s-.01.05-.01.05c-1.33,10-1.01,19.95-.71,29.58.16,5.07.33,10.31.24,15.38v.1s0,.1,0,.1c.04,2.54-.27,5.32-.59,8.25-.73,6.55-1.55,13.97,1.48,21.04l.03.07.03.07c3.69,8.01,11.95,10.81,17.97,12.86.67.23,1.33.45,1.98.68,4.11,1.42,7.84,3.37,12.16,5.63l.49.26c2.4,1.34,4.64,2.52,6.81,3.66,5.27,2.76,11.24,5.89,11.64,8.06.14.75.02,3.84-7.27,12.1l-.08.09-.07.09c-9.49,11.64-18.35,23.9-26.92,35.77-2.95,4.09-6.01,8.32-9.03,12.44l-.02.03-.02.03c-4.42,6.19-9.25,13.15-11.61,17.73-3.52,6.87-.35,10.98,1.17,12.42l.3.28.34.24c2.48,1.78,5.52,2.68,9.03,2.68,4.94,0,9.96-1.74,14.39-3.27,1.58-.55,3.07-1.06,4.26-1.38l.15-.04.14-.05c9.07-2.95,18.87-5.77,29.08-6.44,1.48-.1,2.99-.14,4.5-.14,10.69,0,21.37,2.39,30.88,6.9.96.46,1.94.97,2.99,1.51,3.04,1.58,6.19,3.22,9.89,4.17,1.84.53,3.67.8,5.46.8,8.14,0,13.71-5.38,17.21-9.47,3.35-3.69,7.91-6.53,12.75-9.55l.52-.32c.7-.42,1.41-.84,2.12-1.27,6.51-3.89,13.23-7.92,19.82-9.55,10.84-2.12,16.69-5.1,20.18-10.26,3.42-5.06,3.69-11.23,4.03-19.05.07-1.61.14-3.28.25-5.07v-.04s0-.04,0-.04c.84-19.63,1.75-47.45-.08-62.45-.44-3.45-1.58-6.88-3.39-10.2-3.45-6.72-9.41-10.4-14.24-12.86-3.97-2.15-8.02-4.14-12.16-6.17l-1.5-.73c-4.85-2.38-9.87-4.84-14.58-7.49l-.05-.03-.06-.03c-3.11-1.66-3.96-2.77-4.16-3.09.09-.28.42-.91,1.25-1.85l.06-.07.06-.07c8.29-9.94,15.37-20.8,22.23-31.29,5.62-8.61,11.43-17.51,17.84-25.78.89-1.14,1.87-2.28,2.9-3.49,1.19-1.39,2.41-2.83,3.6-4.37,4.1-5.28,6.98-11.27,9.26-16.42,6.56-14.8,6.61-27.11.15-36.6l-.08-.12c-2.95-4.5-6.88-7.4-11.37-8.34h-.06s-.06-.03-.06-.03c-1.28-.24-2.62-.37-3.97-.37h0ZM971.93,400.51c.19-.04.52-.09,1.03-.09,2.58,0,6.11,1.19,7.27,1.58h.03s.03.02.03.02c2.73.88,5.58,1.94,8.6,3.05,5.29,1.95,10.76,3.97,15.82,5.13,4.63,1.06,10.56,1.75,16.28,1.9.48.03,1,.05,1.58.05,2.22,0,5-.24,8.21-.52,3.62-.31,7.72-.67,11.25-.67,1.98,0,3.38.12,4.35.26-1.36,2.16-4.09,5.19-5.6,6.87-2.17,2.41-4.23,4.69-5.56,6.9-1.6,2.23-3.19,4.47-4.79,6.72-7.04,9.9-14.32,20.13-21.82,29.78-1.66,2.11-3.66,4.52-5.69,6.12l-.09.07-.08.07c-1.23,1.05-2.11,1.18-2.74,1.18-.8,0-1.77-.26-2.88-.77l-.12-.06-.12-.05c-2.43-1-5.49-2.78-8.45-4.5-.93-.54-1.84-1.07-2.72-1.57-2.19-1.34-4.56-2.24-6.66-3.03-3.43-1.3-5.61-2.22-6.5-3.78-.6-1.58-.38-3.82-.12-6.4.18-1.89.39-4.01.28-6.21.04-6.27-.24-12.52-.52-18.56-.36-7.97-.71-15.5-.37-23.13.02-.16.04-.29.06-.38h0ZM1005.96,497.21c.68-.87,1.37-1.8,2.1-2.78,2.88-3.89,7.23-9.76,10.59-9.76.45,0,.92.1,1.44.31l.06.03c.99.45,2.01,1.1,3.2,1.84,1.18.75,2.52,1.59,4.09,2.41,4.69,2.56,11.28,6.26,14.69,8.93.87.69,1.44,1.38,1.85,2.26,1.55,3.56,2.51,8.99,2.3,12.96-.09,1.23-.22,2.48-.35,3.79-.29,2.81-.59,5.71-.51,8.79.09,4.73.32,9.55.55,14.22.24,4.89.48,9.95.55,14.72v.05s0,.05,0,.05c.1,3.15-.4,5.3-.81,6.31h-.04c-3-.9-6.07-2.21-9.33-3.6-4.89-2.09-9.94-4.25-15.35-5.18-5.28-1.1-11.18-2.03-18.05-2.86l-.44-.05c-3.33-.39-6.48-.75-9.85-.75-2.31,0-4.5.17-6.72.53-3.53.47-6.97,1.23-10.3,1.96-3.57.79-7,1.54-10.34,1.91.94-1.03,1.94-2.07,2.99-3.15,1.78-1.85,3.63-3.77,5.32-5.79,4.6-5.6,8.6-11.9,12.47-18,2.05-3.24,3.99-6.3,6.02-9.26,4.47-6.49,9.11-13.22,13.86-19.91h0Z"
             id="path6093" />
        </g>
        <g
           id="g6101">
          <path
             class="cls-7"
             d="M1254.76,612.71c-4.17,0-7.88-2.22-11.48-4.37-1.96-1.17-3.82-2.28-5.52-2.87l-.09-.03-.09-.04c-12.06-5.12-22.94-7.51-34.24-7.51s-22.22,2.24-36.1,7.04c-.81.32-1.62.67-2.43,1.02-2.72,1.17-5.52,2.39-8.73,2.55-.19.01-.41.02-.63.02-3.01,0-5.57-1.31-7.21-3.7-1.97-2.87-2.32-6.91-.92-10.54.77-2.21,2.16-4.05,3.52-5.75,1.95-2.41,13.4-16.55,13.4-16.55,2.24-2.66,3.34-4.7,4.73-7.28.39-.73.81-1.49,1.26-2.31,2.16-3.82,4.73-7.42,7.23-10.91.63-.88,1.26-1.76,1.87-2.64,1.74-2.51,3.66-5.12,5.69-7.88,4.23-5.75,8.6-11.69,11.82-17.38l.08-.14c1.66-2.61,2.24-4.8,1.72-6.5-.96-3.13-5.72-5.54-9.77-7.29-3.28-1.46-6.18-3.32-9-5.12-3.07-1.97-5.97-3.82-9.06-4.99l-.16-.07c-1.62-.72-3.39-1.38-5.27-2.07-6.23-2.3-13.28-4.9-17.05-11.14l-.05-.09-.05-.09c-1.36-2.64-1.71-5.74-1.87-8.14-.44-7.45-.3-15.01-.15-22.32.11-5.5.22-11.2.07-16.72-.02-3.39-.45-6.7-.92-10.22-.49-3.68-.99-7.49-.97-11.34.18-11.89,6.81-15.41,14.5-19.48.51-.27,1.03-.55,1.56-.83,10.56-7.03,22.87-15.53,34.26-25.26,1.01-.88,2.09-1.99,3.23-3.15,3.83-3.92,8.17-8.37,14.06-8.37,1.75,0,3.51.41,5.23,1.22l.21.1.2.13c20.25,13.74,32.08,18.01,57.55,20.78l.14.02.14.03c1.57.32,3.22.48,4.9.48,6.8,0,13.97-2.6,19.66-7.13,5.68-4.83,10.54-13.66,8.21-20.38-.73-2.29-2.29-4.29-3.94-6.4-1.71-2.19-3.47-4.45-4.62-7.28-2.17-5.07-.84-11.33,3.2-14.84,2.16-1.93,5.07-2.96,8.4-2.96,3.83,0,8.14,1.41,11.54,3.77l.2.15c4.88,3.56,7.77,9.98,8.36,18.57.52,12.01-6.27,22.15-12.26,31.1l-1.25,1.87c-5.6,7.67-10.75,16.31-15.72,24.66-5.33,8.95-10.84,18.21-17.03,26.5-1.56,2.11-3.37,4.01-5.12,5.85-2,2.1-3.89,4.08-5.35,6.28-1.32,1.86-1.72,3.73-1.25,5.64.58,2.36,2.52,4.57,5.18,5.92l.09.05c2.61,1.43,5.32,2.83,7.94,4.18,7.43,3.83,15.11,7.79,21.84,13.25.71.48,1.46.96,2.21,1.44,4.14,2.65,8.84,5.66,10.95,10.79,1.32,3.05,1.54,6.1,1.71,9.76.18,5.42-.06,11.16-.29,16.71-.08,1.83-.15,3.65-.21,5.43-.35,6.69.02,11.34,1.34,16.65,1.07,4.9,1.18,8.98,1.32,14.13l.03,1.14c.12,5.48.09,10.7-.1,15.11-.12,8.11-3.02,13.56-8.61,16.13-2.64,1.26-5.48,1.99-8.24,2.7-1.94.5-3.77.97-5.47,1.6-12.58,4.81-23.82,12.63-33.15,19.66-1.68,1.23-3.36,2.79-4.98,4.3-.99.92-2.01,1.87-3,2.72-2.24,1.79-4.65,2.67-7.22,2.67ZM1217.38,558.01c17.74,0,36.11,3.43,49.15,9.18l.14.07c.49.25,1.01.52,1.53.81,2,1.08,4.28,2.29,6.07,2.29h0c.57,0,1.05-.12,1.51-.39,2.18-1.5,2.07-4.43,1.64-9.05-.15-1.65-.31-3.35-.25-4.95.01-3.81.15-8,.3-12.44.21-6.22.43-12.65.3-18.51-.13-17.38-4.09-22.26-18.67-31.17l-.09-.05c-4.41-2.47-9.56-4.7-13.75-5.95-.65-.2-1.25-.3-1.78-.3-.83,0-2.11.2-3.63,1.9-6.88,9.07-13.39,18.75-19.68,28.1-5.2,7.73-10.58,15.73-16.14,23.34-1.84,2.73-4.07,5.17-6.24,7.52-3.07,3.34-5.98,6.49-7.61,10.27-.63,1.48-.72,2.86-.24,3.58.42.63,1.33.76,2.03.76.43,0,.9-.05,1.4-.15,2.27-.47,4.51-1.22,6.89-2.02,4.07-1.37,8.29-2.79,12.96-2.79,1.3-.05,2.73-.07,4.16-.07ZM1206,468.26c2.51,1.01,5.31,2.87,8.27,4.83,4.57,3.03,9.75,6.47,13.59,6.47,1.47,0,2.59-.51,3.61-1.66,9.52-14.19,20.18-28.85,29.6-41.78,1.24-1.6,2.5-3.16,3.78-4.75,2.21-2.73,4.49-5.56,6.46-8.29l.09-.12c2.26-2.82,3.69-6.16,3.25-7.61-.05-.17-.18-.61-1.24-.97-.75-.14-1.59-.2-2.56-.2-1.16,0-2.36.09-3.63.19-1.34.1-2.72.21-4.14.21,0,0-2.16,0-3.12,0-15.83,0-32.71-.78-48.93-6.48l-.2-.07c-1.1-.37-2.31-.84-3.58-1.33-3.17-1.23-6.77-2.63-9.55-2.63-.98,0-1.77.17-2.41.53-2.81,1.79-3.08,6.01-2.44,9.1.91,4.8,1.32,8.81,1.27,12.31.03,2.86-.08,5.93-.18,8.9-.31,9.17-.64,18.65,2.68,26.04,1.55,3.49,5.16,5.38,9.37,7.31Z"
             id="path6097" />
          <path
             class="cls-6"
             d="M1311.29,326.98c3.43,0,7.09,1.34,9.82,3.24l.15.11c4.9,3.58,6.72,10.22,7.14,16.35.5,11.69-6.73,21.66-12.94,31-11.69,16-20.85,35.23-32.73,51.14-3.17,4.29-7.6,7.79-10.57,12.25-4.23,5.98-1.08,12.78,5.07,15.89,10,5.49,20.58,9.99,29.44,17.22,4.35,2.96,10.06,5.8,12.19,10.96,1.15,2.67,1.34,5.49,1.48,8.75.24,7.04-.26,14.76-.5,21.91-.35,6.51-.04,11.57,1.43,17.47,1.06,4.88,1.1,9.01,1.26,14.63.11,4.87.11,10.14-.1,14.9-.09,5.55-1.52,11.08-6.86,13.54-4.2,2.01-9.17,2.6-13.51,4.22-12.19,4.66-23.32,12.1-33.9,20.07-2.85,2.09-5.59,4.97-8.12,7.12-1.76,1.4-3.52,1.95-5.28,1.95-5.44,0-10.85-5.27-16.01-7.07-12.62-5.36-24.03-7.75-35.41-7.75-11.96,0-23.89,2.64-37.13,7.23-3.4,1.31-6.7,3.21-10.28,3.39-.16.01-.32.02-.48.02-5.27,0-7.06-5.67-5.32-10.16.65-1.85,1.82-3.41,3.06-4.95,3.39-4.19,9.87-12.18,13.39-16.54,3.05-3.61,4.15-6.2,6.28-10.01,2.6-4.6,5.88-8.94,8.93-13.29,5.4-7.78,12.81-16.91,17.67-25.51,6.22-9.76-.77-14.43-9.39-18.16-6.52-2.89-11.83-7.76-18.19-10.17-7.09-3.17-16.73-4.99-20.97-12.02-1.05-2.04-1.39-4.6-1.54-6.97-.77-12.92.27-26.01-.07-38.93-.03-7.15-1.92-14.31-1.88-21.46.16-10.83,6.22-13.25,14.6-17.75,11.84-7.88,23.78-16.26,34.66-25.56,4.51-3.92,9.17-10.8,15.34-10.8,1.25,0,2.57.28,3.96.94,21.27,14.43,33.51,18.52,58.91,21.28,1.81.37,3.65.54,5.5.54,7.76,0,15.62-3.08,21.53-7.78,6.26-5.32,12.06-15.38,9.17-23.71-1.66-5.18-6.51-8.66-8.62-13.83-1.64-3.82-.79-8.68,2.39-11.45,1.76-1.57,4.04-2.23,6.43-2.23M1227.86,482.57c2.22,0,4.27-.81,6-2.84,9.36-13.96,19.52-27.95,29.64-41.84,3.26-4.18,7.09-8.68,10.25-13.05,3.06-3.8,6.99-11.31.42-13.37-1.09-.22-2.19-.29-3.31-.29-2.56,0-5.17.4-7.77.4-.09,0-.17,0-.26,0-.95,0-1.91,0-2.86,0-16.64,0-32.75-.98-47.94-6.31l-.18-.06c-4.17-1.4-9.62-4.13-14.14-4.13-1.43,0-2.77.27-3.95.95-4.07,2.52-4.73,7.96-3.84,12.28.69,3.64,1.27,7.78,1.21,11.66.1,11.92-1.98,25.64,2.76,36.21,2.04,4.59,6.58,6.86,10.93,8.84,6.13,2.42,15.57,11.55,23.04,11.55M1191.96,566.04c.62,0,1.28-.07,1.99-.21,6.52-1.35,12.52-4.75,19.26-4.75h.03c1.35-.05,2.73-.07,4.14-.07,15.56,0,34.18,2.86,47.94,8.93,2.63,1.33,5.85,3.42,8.96,3.42,1.06,0,2.11-.24,3.11-.85,5.3-3.53,2.55-11.16,2.79-16.47.03-9.13.83-20.94.6-31.09-.13-18.32-4.76-24.28-20.1-33.66l-.15-.08c-4.21-2.36-9.59-4.79-14.4-6.23-.92-.28-1.8-.42-2.64-.42-2.21,0-4.18.97-5.95,2.99-12.68,16.7-23.68,34.83-35.96,51.63-4.24,6.34-11.06,11.19-14.15,18.32-2.02,4.76-.06,8.54,4.54,8.54M1311.29,320.98h0c-4.07,0-7.66,1.29-10.4,3.73-5.03,4.41-6.66,11.9-3.96,18.26,1.31,3.2,3.28,5.72,5.02,7.95,1.55,1.98,2.88,3.69,3.43,5.4l.02.07.02.07c1.8,5.17-2.39,12.88-7.32,17.11-5.09,4.02-11.7,6.42-17.72,6.42-1.48,0-2.92-.14-4.3-.42l-.27-.06-.28-.03c-25.18-2.74-36.2-6.71-56.19-20.28l-.39-.27-.43-.2c-2.13-1-4.32-1.5-6.51-1.5-7.15,0-12.17,5.14-16.2,9.27-1.09,1.12-2.12,2.17-3.05,2.98-11.22,9.59-23.38,17.99-33.83,24.95-.48.26-.96.51-1.42.76-7.81,4.14-15.89,8.42-16.09,22.06v.03s0,.03,0,.03c-.02,4.06.49,7.97.99,11.75.45,3.42.88,6.64.89,9.77v.07s0,.07,0,.07c.15,5.46.03,11.11-.07,16.58-.14,7.37-.29,14.98.16,22.54.18,2.73.59,6.22,2.19,9.35l.09.18.11.18c4.31,7.14,12.22,10.06,18.58,12.41,1.83.68,3.56,1.31,5.08,1.99l.16.07.17.06c2.8,1.06,5.57,2.83,8.5,4.71,2.91,1.86,5.91,3.79,9.37,5.33h.03s.03.02.03.02c6.13,2.65,7.78,4.41,8.09,5.42.24.78-.28,2.28-1.38,4.01l-.09.14-.08.14c-3.13,5.53-7.45,11.4-11.62,17.08-2.04,2.78-3.98,5.4-5.75,7.96-.59.84-1.22,1.72-1.84,2.59-2.54,3.55-5.16,7.22-7.39,11.16-.48.86-.9,1.63-1.3,2.38-1.36,2.52-2.34,4.35-4.35,6.72l-.04.05-.04.05-5.59,6.9c-2.86,3.53-5.85,7.22-7.81,9.64-1.52,1.89-3.06,3.95-4.03,6.65-1.71,4.51-1.23,9.57,1.27,13.22,2.18,3.18,5.71,5.01,9.68,5.01.27,0,.54,0,.82-.02,3.73-.2,6.92-1.58,9.73-2.79.8-.34,1.55-.67,2.27-.95,13.53-4.68,24.68-6.86,35.07-6.86,10.89,0,21.39,2.31,33.06,7.27l.18.08.19.07c1.41.49,3.14,1.53,4.97,2.62,3.76,2.25,8.02,4.79,13.02,4.79,3.27,0,6.31-1.1,9.02-3.27l.07-.06.07-.06c1.04-.89,2.09-1.86,3.1-2.8,1.56-1.45,3.17-2.95,4.68-4.05l.03-.02.03-.02c9.16-6.9,20.19-14.58,32.44-19.26,1.51-.57,3.27-1.02,5.12-1.49,2.88-.74,5.86-1.51,8.79-2.9,8.3-3.85,10.19-12.32,10.31-18.79.24-5.62.18-11.37.1-15.22l-.03-1.16c-.14-5.32-.25-9.52-1.36-14.61l-.02-.09-.02-.09c-1.24-4.99-1.6-9.39-1.26-15.7v-.06s0-.06,0-.06c.06-1.77.13-3.58.21-5.4.23-5.61.47-11.4.29-16.91v-.03s0-.03,0-.03c-.17-3.82-.43-7.28-1.95-10.82-2.48-5.97-7.81-9.38-12.09-12.12-.72-.46-1.41-.9-2.05-1.33-6.95-5.62-14.73-9.63-22.26-13.51-2.6-1.34-5.3-2.73-7.87-4.14l-.09-.05-.09-.05c-1.86-.94-3.25-2.46-3.62-3.96-.26-1.03-.02-2.05.73-3.11l.05-.07.05-.07c1.32-1.98,3.12-3.87,5.03-5.87,1.82-1.9,3.69-3.87,5.37-6.14,6.27-8.4,11.82-17.72,17.19-26.74,4.94-8.29,10.04-16.87,15.56-24.43l.08-.11.07-.11c.39-.58.78-1.17,1.17-1.76,6.24-9.33,13.32-19.91,12.77-32.82v-.08s0-.08,0-.08c-.65-9.5-3.96-16.69-9.59-20.79l-.15-.11-.05-.04-.05-.04c-3.94-2.74-8.77-4.31-13.25-4.31h0ZM1196.82,407.2c.19-.08.51-.12.89-.12,2.21,0,5.53,1.29,8.46,2.42,1.29.5,2.51.97,3.72,1.38l.12.04c16.68,5.85,33.87,6.66,49.96,6.66.96,0,1.91,0,2.87,0h.25c1.53,0,2.98-.11,4.37-.22,1.21-.09,2.35-.18,3.39-.18.19,0,.37,0,.55,0-.41,1.04-1.21,2.48-2.34,3.9l-.1.12-.09.13c-1.92,2.66-4.18,5.46-6.36,8.16-1.25,1.55-2.55,3.16-3.76,4.71l-.06.08-.06.08c-9.39,12.9-20.02,27.51-29.53,41.68-.48.49-.81.53-1.25.53-2.93,0-8.13-3.45-11.93-5.97-3.07-2.04-5.97-3.96-8.75-5.09-3.62-1.66-6.69-3.25-7.81-5.76-3.04-6.78-2.73-15.9-2.43-24.73.1-2.98.21-6.05.18-9.03.05-3.69-.38-7.88-1.31-12.8v-.05s-.02-.05-.02-.05c-.45-2.2-.24-4.98,1.02-5.9h0ZM1242.16,491.37c.76-.82,1.15-.82,1.32-.82.24,0,.54.06.88.16,4.02,1.2,8.93,3.32,13.19,5.7l.05.03c13.61,8.33,17.06,12.58,17.17,28.55v.05s0,.05,0,.05c.13,5.78-.09,12.17-.3,18.35-.15,4.44-.29,8.63-.31,12.47-.07,1.78.1,3.57.26,5.3.21,2.25.49,5.27-.21,6.16-1.05-.03-3.18-1.18-4.6-1.94-.55-.3-1.09-.58-1.6-.84l-.14-.07-.15-.06c-13.4-5.91-32.23-9.44-50.36-9.44-1.43,0-2.86.02-4.25.07-5.15.02-9.76,1.57-13.84,2.94-2.22.75-4.32,1.45-6.37,1.89,0-.02.02-.05.03-.07,1.42-3.28,4.16-6.25,7.05-9.4,2.23-2.42,4.53-4.92,6.49-7.83,5.59-7.65,10.97-15.65,16.17-23.39,6.24-9.29,12.7-18.89,19.5-27.86h0Z"
             id="path6099" />
        </g>
        <g
           id="g6107">
          <path
             class="cls-7"
             d="M1523.97,628.85c-2.64,0-5.29-1.02-8.09-3.13l-.12-.09-.11-.1c-4.1-3.79-8.83-9.8-13-15.1-1-1.28-1.98-2.52-2.91-3.68-2.05-2.65-3.71-5-5.2-7.95-1.02-1.72-2-3.89-3.02-6.18-2.54-5.67-5.7-12.72-10.04-13.33h-.03c-1.63,0-3.11,1.25-4.82,2.71-1.13.96-2.3,1.95-3.69,2.74-3.89,2.44-7.96,4.82-11.9,7.12-7.54,4.41-15.34,8.96-22.25,14.21-2.84,2.02-5.48,4.64-8.27,7.42-3.49,3.47-7.09,7.05-11.25,9.6-1.38.89-2.97,1.35-4.67,1.35-4.97,0-9.62-3.99-13.02-6.9-.53-.45-1.02-.88-1.48-1.25l-.16-.13-.14-.16c-7.71-8.35-15.54-20.58-20.96-32.7-7.52-18.26-9.57-39.13-5.82-58.83,3.97-20.84,14.37-38.84,29.28-50.67l.12-.1c10.06-8.13,14.22-11.49,7.46-21.91l-.09-.13-.07-.14c-1.87-3.69-3.21-7.65-4.5-11.48-.98-2.9-1.91-5.65-3.05-8.27-1.17-2.81-2.39-5.42-3.68-8.18-1.81-3.87-3.68-7.87-5.44-12.51l-.04-.12c-.18-.54-.38-1.12-.6-1.71-1.4-3.95-3.15-8.87-1.03-12.71,1.1-1.99,3-3.3,5.67-3.9,1.25-.28,2.63-.42,4.22-.42,1.29,0,2.57.09,3.81.17,1.16.08,2.25.15,3.29.15h.26c2.21,0,4.69-.73,7.31-1.49,1.31-.38,2.66-.78,4.03-1.1,3.2-.69,6.13-1.12,8.97-1.54,6.21-.91,11.57-1.69,17.73-4.74,5.34-2.75,9.86-4.87,15.01-4.87,3.26,0,6.47.86,9.82,2.64l.21.1c3.38,1.71,6.72,3.47,9.94,5.17,17.14,9.03,33.33,17.55,53.59,17.83h.33s.32.08.32.08c3.2.76,5.45,2.73,6.16,5.4.78,2.93-.41,6.32-3.11,8.86-5.27,5.29-8.24,13.31-8.08,21.94.08,2.02.28,4.07.48,6.05.28,2.78.57,5.66.51,8.67.19,10.93.02,22.37-.15,33.43-.38,25-.78,50.84,2.88,74.58,1.03,3.87,3.17,7.21,5.43,10.74,1.02,1.59,2.07,3.23,3.07,4.98l.36.63c1.21,2.1,2.36,4.09,3.96,5.52l.1.09c1.47,1.43,2.66,1.63,3.73,1.63h0c1.14,0,2.46-.29,3.85-.59,1.24-.27,2.65-.57,4.14-.72l.25-.02.25.02c3.48.24,5.63,1.46,6.39,3.64,1.35,3.88-2.81,7.65-6.15,10.68-2.43,2.27-5.3,4.84-8.03,7.21-1.96,1.75-4.17,3.6-6.3,5.39-3.28,2.74-6.66,5.57-9.26,8.18-2.92,3.37-6.91,7.93-12.37,7.93ZM1430.21,477.17c-3.92,0-7.42,3.23-10.38,9.61-5.5,12.27-7.57,25.94-6.69,44.3.91,11.59,2.94,24.99,11.04,35.81,1.55,2,3.75,3.7,6.08,5.5.65.5,1.29,1,1.92,1.51.76.61,1.5,1.24,2.25,1.87,3.64,3.08,7.07,5.99,11.38,5.99h.13c5.05-.03,8.11-2.45,11.98-5.52,1.14-.9,2.31-1.83,3.6-2.75l.14-.1c2.31-1.46,4.75-2.82,7.1-4.13,3.3-1.84,6.71-3.74,9.73-5.9,9.33-6.62,8.88-10.97,7.97-19.62-.25-2.43-.54-5.18-.63-8.27,0-2.86.3-5.75.59-8.54.81-7.7,1.57-14.97-3.62-19.77-4.48-4.02-10.44-7.06-16.21-10-2.81-1.43-5.71-2.91-8.38-4.48-3.52-1.89-6.93-4.23-10.22-6.49-4.58-3.14-9.3-6.39-14.21-8.3l-.1-.03c-1.28-.47-2.43-.69-3.49-.69ZM1415.39,404.91c-3.06,0-5.33.86-6.38,2.43-1.19,1.76-1.03,4.72.43,8.33,1.35,3.63,3.13,6.93,5.01,10.42,1.34,2.48,2.72,5.05,3.93,7.73,1.43,3.04,2.6,6.11,3.74,9.08,2.35,6.16,4.57,11.98,8.92,16.85l.09.1c2.64,3.24,6.69,5.27,10.62,7.23l1.33.67.1.06c2.6,1.59,5.54,3.47,8.67,5.46,7.77,4.96,16.57,10.58,22.79,13.46,2.74,1.29,5.3,1.99,7.21,1.99.79,0,1.46-.12,2.01-.34,1.32-1.04,1.22-4.04,1.13-6.7-.04-1.18-.08-2.41,0-3.54.02-4.66.34-9.2.64-13.59.3-4.27.6-8.69.62-13.08v-.53c0-5.52-.02-11.22-2.77-15.55-1-1.36-2.57-1.96-5.02-2.81-.85-.3-1.74-.6-2.63-.98-4.27-1.93-8.55-4.39-12.69-6.76-3.61-2.07-7.01-4.02-10.28-5.58l-.2-.1c-2.45-1.14-4.97-2.39-7.64-3.72-8.23-4.1-16.74-8.35-25.18-10-1.62-.35-3.11-.52-4.47-.52Z"
             id="path6103" />
          <path
             class="cls-6"
             d="M1461.65,381.81c2.64,0,5.41.68,8.5,2.33l.17.08c21.42,10.84,39.96,22.98,64.85,23.32,5.21,1.24,5.07,5.97,1.69,9.16-6.25,6.27-9.19,15.35-9.02,24.19.19,5.11,1.09,9.71.99,14.66.63,35.33-2.6,73.88,2.78,108.62,1.61,6.24,5.59,10.89,8.83,16.59,1.43,2.46,2.79,4.99,4.94,6.9,1.95,1.9,3.86,2.48,5.82,2.48,2.61,0,5.3-1.03,8.28-1.32,7.83.54,1.83,6.02-1.57,9.11-2.46,2.3-5.32,4.86-7.98,7.16-5.05,4.53-11.38,9.34-15.8,13.79-3.3,3.81-6.32,6.97-10.17,6.97-1.86,0-3.92-.75-6.29-2.53-4.89-4.52-10.83-12.49-15.61-18.45-1.97-2.54-3.51-4.74-4.91-7.52-3.7-6.14-7.26-20.13-15.48-21.05-.08,0-.17,0-.25,0-4.16,0-6.65,3.96-10.05,5.88-11.29,7.1-23.7,13.38-34.42,21.52-6.53,4.64-12.22,12.52-19.28,16.85-.99.64-2.04.91-3.11.91-4.56,0-9.5-4.94-12.6-7.47-7.93-8.59-15.44-20.73-20.43-31.89-14.48-35.17-8.01-81.64,22.59-105.93,10.07-8.14,16.5-13.25,8.24-25.99-3.12-6.16-4.73-13.25-7.47-19.59-2.84-6.81-6.13-12.81-9.07-20.56-1.67-5.04-5.41-12.82,1.85-14.45,1.15-.26,2.35-.34,3.56-.34,2.37,0,4.8.32,7.09.32.05,0,.09,0,.14,0,.04,0,.08,0,.12,0,3.87,0,7.97-1.73,12.02-2.67,9.81-2.12,17.79-1.78,27.36-6.51,4.9-2.52,9.11-4.56,13.68-4.56M1481.85,491.74c1.25,0,2.44-.21,3.51-.73,3.85-2.48,2.33-8.74,2.64-12.74.04-9.15,1.22-17.75,1.26-26.78-.01-5.95.08-12.55-3.29-17.79-2.14-2.99-5.74-3.5-8.95-4.86-7.62-3.45-15.62-8.83-22.85-12.29l-.16-.08c-10.38-4.83-21.97-11.71-33.57-13.98-1.78-.39-3.48-.58-5.04-.58-8.06,0-12.71,5.08-8.73,14.89,2.38,6.4,6.18,12.05,8.99,18.26,4.45,9.45,6.26,18.98,13.16,26.69,3.34,4.1,8.28,6.33,12.81,8.63,9.08,5.56,22.83,14.95,31.76,19.09,2.42,1.13,5.58,2.27,8.47,2.27M1445.81,584.78c.05,0,.11,0,.16,0,7.72-.04,11.55-4.73,17.29-8.83,5.46-3.45,11.63-6.31,16.98-10.13,13.66-9.7,8.98-16.45,8.6-30.42,0-10.3,4.45-22.62-3.99-30.43-7.1-6.38-17.09-10.15-25.16-14.89-8.31-4.44-16.01-11.56-24.88-15l-.18-.06c-1.58-.58-3.06-.84-4.43-.84-6.15,0-10.27,5.26-13.1,11.35-6.37,14.2-7.75,29.34-6.96,45.71,1.1,13.94,3.7,26.86,11.63,37.46,2.3,2.96,5.59,5.19,8.52,7.56,4.71,3.8,9.09,8.53,15.51,8.53M1461.65,375.81h0c-5.81,0-10.66,2.25-16.38,5.2-5.72,2.82-10.86,3.57-16.8,4.44-2.89.42-5.88.86-9.12,1.56h-.05s-.05.02-.05.02c-1.45.34-2.84.75-4.19,1.14-2.41.71-4.69,1.37-6.47,1.37h-.06s-.05,0-.05,0h-.05s-.1,0-.1,0c-.93,0-1.98-.07-3.08-.15-1.28-.09-2.61-.18-4.01-.18-1.81,0-3.41.16-4.87.49-4.41.99-6.59,3.47-7.64,5.38-2.77,5.02-.69,10.88.83,15.16.2.57.4,1.13.57,1.65l.04.13.05.12c1.8,4.74,3.69,8.79,5.53,12.71,1.28,2.73,2.48,5.31,3.62,8.03l.02.04.02.04c1.09,2.51,2,5.2,2.96,8.04,1.33,3.93,2.7,8,4.67,11.87l.14.28.17.27c3.79,5.84,2.8,7.96,2.38,8.87-1.22,2.61-4.92,5.61-9.21,9.07l-.12.1c-15.46,12.28-26.23,30.9-30.34,52.44-3.86,20.27-1.75,41.74,5.95,60.45l.03.08.04.08c5.54,12.41,13.58,24.94,21.5,33.52l.29.31.33.27c.44.36.91.77,1.42,1.2,3.75,3.22,8.89,7.62,14.97,7.62,2.26,0,4.38-.61,6.28-1.82,4.44-2.73,8.16-6.43,11.75-10.01,2.7-2.69,5.26-5.23,7.82-7.05l.08-.06.08-.06c6.76-5.13,14.48-9.64,21.94-14.01,3.94-2.3,8.02-4.68,11.93-7.14,1.6-.92,2.92-2.04,4.09-3.03.91-.77,2.14-1.81,2.74-1.97,2.64.74,5.77,7.72,7.48,11.53,1.05,2.34,2.04,4.55,3.13,6.4,1.59,3.11,3.32,5.57,5.43,8.3l.03.04.03.04c.93,1.16,1.9,2.39,2.9,3.66,4.24,5.39,9.05,11.5,13.33,15.45l.23.21.25.18c3.34,2.51,6.58,3.73,9.9,3.73,6.77,0,11.45-5.29,14.57-8.89,2.49-2.49,5.79-5.25,8.98-7.92,2.14-1.79,4.36-3.64,6.38-5.46,2.75-2.38,5.61-4.95,8.08-7.25,3.57-3.24,8.92-8.13,6.93-13.86-.82-2.35-3.04-5.24-9.02-5.65l-.5-.03-.5.05c-1.66.16-3.16.49-4.48.77-1.24.27-2.4.52-3.22.52-.45,0-.83,0-1.63-.78l-.1-.1-.1-.09c-1.24-1.1-2.22-2.8-3.36-4.78l-.36-.62c-1.03-1.82-2.1-3.49-3.14-5.1-2.19-3.42-4.09-6.38-5.02-9.73-3.59-23.44-3.2-49.1-2.82-73.91.17-11.07.35-22.52.15-33.48.05-3.17-.24-6.12-.53-8.97-.2-2.01-.39-3.9-.47-5.86-.13-7.77,2.49-14.95,7.22-19.72,3.45-3.29,4.93-7.78,3.87-11.74-1.01-3.77-4.06-6.52-8.37-7.55l-.64-.15h-.66c-19.55-.28-35.42-8.64-52.23-17.49-3.24-1.71-6.59-3.47-9.99-5.19l-.13-.07-.12-.05c-3.76-1.98-7.4-2.94-11.13-2.94h0ZM1421.1,432.55c-1.25-2.75-2.65-5.35-4-7.87-1.83-3.4-3.56-6.61-4.81-9.97l-.03-.08-.03-.08c-1.32-3.26-1.08-5.01-.73-5.53.37-.55,1.72-1.1,3.89-1.1,1.15,0,2.42.15,3.78.44h.06s.06.02.06.02c8.03,1.57,16.36,5.72,24.41,9.74,2.66,1.33,5.18,2.58,7.71,3.76l.09.04.05.02.05.02c3.16,1.51,6.52,3.44,10.08,5.47,4.2,2.41,8.55,4.9,12.88,6.86l.06.03.07.03c.98.42,1.95.76,2.81,1.05,1.85.64,3.03,1.09,3.54,1.7,2.22,3.59,2.22,8.8,2.23,13.84v.55c-.02,4.26-.31,8.43-.61,12.85-.31,4.41-.62,8.97-.65,13.7-.08,1.25-.04,2.52,0,3.74.04,1.08.1,2.92-.07,3.95-.03,0-.05,0-.08,0-1.46,0-3.62-.62-5.92-1.7-6.07-2.81-14.78-8.37-22.46-13.28-3.14-2-6.1-3.89-8.72-5.5l-.21-.13-.22-.11c-.41-.21-.82-.41-1.24-.62-3.81-1.91-7.41-3.71-9.63-6.44l-.09-.11-.09-.1c-3.98-4.46-6.01-9.77-8.36-15.92-1.15-3.01-2.33-6.12-3.82-9.29h0ZM1422.57,488.01c1.67-3.58,4.34-7.84,7.64-7.84.71,0,1.51.16,2.38.48l.08.03.08.03h.03c4.55,1.8,8.91,4.79,13.52,7.96,3.35,2.3,6.81,4.68,10.45,6.64,2.74,1.6,5.66,3.09,8.49,4.53,5.58,2.84,11.35,5.78,15.56,9.56,3.78,3.53,3.52,8.87,2.64,17.23-.3,2.87-.61,5.84-.61,8.77v.16c.09,3.21.38,6.02.64,8.5.88,8.42,1.17,11.26-6.72,16.86-2.9,2.07-6.09,3.85-9.47,5.73-2.39,1.34-4.87,2.72-7.24,4.22l-.14.09-.14.1c-1.35.97-2.56,1.92-3.72,2.84-4.02,3.19-6.29,4.85-10.11,4.87h-.13c-3,0-5.57-1.99-9.44-5.28-.74-.63-1.51-1.28-2.29-1.91-.66-.53-1.31-1.04-1.98-1.55-2.15-1.67-4.19-3.25-5.55-4.98-7.58-10.17-9.52-22.98-10.41-34.2-.85-17.8,1.14-31.02,6.43-42.84h0Z"
             id="path6105" />
        </g>
        <g
           id="g6113">
          <path
             class="cls-7"
             d="M789.21,608.62c-1.33,0-2.69-.19-4.03-.57l-.16-.04-.15-.06c-17.47-7-38.35-14.95-60.78-20.8-1.24-.36-2.65-.63-4.15-.91-4.62-.87-9.85-1.86-12.12-5.9-1.3-2.32-1.33-5.17-.08-8.49.88-2.51,2.22-5.38,3.63-8.41,2.11-4.51,4.28-9.18,5.21-13.24,2.59-19.13,1.64-40.12.71-60.41-.72-15.78-1.46-32.1-.55-47.57.18-3.62-.12-7.35-.48-11.16-.28-3.03-.27-6.07-.25-9.01.03-5.66.05-11.01-1.92-15.96l-.26-.66c-2.56-6.51-6.06-15.43,3.84-20.16l.09-.04.09-.04c12.67-5.03,24.88-13.06,36.69-20.82,4.45-2.93,9.06-5.96,13.58-8.74,4.12-2.55,7.15-4.57,10.1-6.74l.08-.06c.66-.45,1.35-.95,2.07-1.46,4.21-3,9.45-6.74,14.99-6.74,2.11,0,4.1.54,5.92,1.61l.3.19.06.05c2.78,1.97,5,4.65,7.14,7.25,1.19,1.44,2.31,2.8,3.45,3.95,1.65,1.76,3.32,3.36,5.31,5.1l.1.09.09.1c2.48,2.57,8.55,7.11,15.59,12.37,23.43,17.51,39.77,30.59,36.58,39.25-.75,2.18-2.46,3.69-3.69,4.63-13.77,9.99-27.4,20.68-40.57,31.01-14.35,11.25-29.19,22.88-44.09,33.53-2.51,1.96-5.08,4.17-7.56,6.3l-.85.73c-2.31,2.02-3.46,3.97-3.61,6.11.22,6.03.46,12.09.71,18.14.25,6.18.5,12.36.72,18.51.16,2.26-.02,4.58-.19,6.83-.34,4.4-.63,8.21,1.53,11.41,2.61,3.78,7.61,5.73,12.44,7.62,1.18.46,2.35.92,3.46,1.39,2.03.76,4.08,1.19,6.25,1.64,1.45.31,2.95.62,4.52,1.05,2.55.66,4.97,1.69,7.32,2.69.87.37,1.73.74,2.59,1.08l.09.04.09.04c1.87.9,3.77,1.33,5.79,1.33h0c3.78,0,7.93-1.55,12.69-4.73,3.13-2.02,6.26-4.21,9.3-6.33,2.06-1.44,4.11-2.88,6.17-4.27l.11-.07.11-.06c1.34-.75,3.15-2.14,5.06-3.61,4.86-3.74,10.38-7.99,15.74-7.99,1.7,0,3.27.43,4.67,1.27,2.93,1.88,4.47,5.46,3.81,8.75-.47,2.85-2.66,5.49-6.66,7.95-12.4,7.44-23.26,15.96-34.76,24.97-7.24,5.68-14.73,11.56-22.63,17.12-1.41.99-2.79,2.17-4.26,3.42-4.15,3.52-8.85,7.52-15.01,7.52ZM767.58,467.3c.08.06.36.19.91.19s1.18-.14,1.74-.39c9.36-5.3,17.83-12.5,26.02-19.46,2.69-2.29,5.48-4.66,8.26-6.93,2.2-1.9,4.7-3.47,7.12-4.99,1.79-1.12,3.47-2.18,5.03-3.35,1.66-1.3,1.56-2,.95-3.2-2.04-4-5.85-8.09-8.55-10.81-8.86-8.77-19.91-19.14-28.83-27.04-2.47-2.23-7.04-6.34-10.65-6.34-.72,0-1.39.17-2.02.52,0,1.57,0,4.13,0,7.4v8.58c0,8.72,0,19.59,0,30.04,0,16.03-.01,31.2.02,35.79Z"
             id="path6109" />
          <path
             class="cls-6"
             d="M795.36,343.63c1.49,0,2.97.35,4.41,1.2l.14.09c3.91,2.77,6.85,7.51,10.2,10.87,1.76,1.89,3.55,3.57,5.47,5.24,8.72,9.04,55.44,38.17,51.5,48.53-.43,1.26-1.44,2.3-2.69,3.26-28.72,20.84-56.11,44.15-84.63,64.52-2.87,2.24-5.72,4.71-8.57,7.16-2.6,2.27-4.49,4.92-4.66,8.36.44,12.23,1,24.58,1.44,36.79.47,6.72-2.17,13.85,1.86,19.81,3.87,5.59,11.27,7.56,17.28,10.13,3.69,1.39,7.26,1.75,11.09,2.8,3.3.86,6.47,2.43,9.59,3.67,2.37,1.13,4.74,1.63,7.09,1.63,4.99,0,9.86-2.22,14.35-5.23,5.19-3.35,10.33-7.13,15.48-10.61,4.87-2.7,13-11.22,19.35-11.22,1.1,0,2.15.26,3.11.84,1.83,1.17,2.84,3.48,2.42,5.6-.42,2.55-3.05,4.61-5.29,5.99-20.61,12.36-37.58,28.12-57.54,42.19-5.58,3.92-10.6,10.39-17.54,10.39-1.03,0-2.1-.14-3.23-.46-20.21-8.1-40.05-15.42-61.14-20.92-6.4-1.89-18.05-1.39-14.3-11.34,2.18-6.23,7.38-14.94,8.99-22.18,4.68-34.36-1.87-73.09.21-108.33.2-3.89-.13-7.75-.49-11.62-.8-8.6.92-17.54-2.37-25.8-2.66-6.79-5.53-13.35,2.09-16.99,17.84-7.09,34.37-19.7,50.74-29.8,3.59-2.22,6.86-4.34,10.3-6.87,4.36-2.98,9.94-7.68,15.36-7.68M768.49,470.49c1.03,0,2.12-.25,3.11-.72,12.77-7.21,23.53-17.53,34.81-26.74,3.67-3.18,8.22-5.36,12.06-8.27,2.45-1.91,3.27-4.07,1.82-6.94-2.11-4.16-5.77-8.21-9.09-11.56-8.58-8.5-19.71-18.97-28.98-27.17-3.3-2.97-8.03-7.1-12.63-7.1-1.29,0-2.57.32-3.8,1.09l-.09.05c-.77.48-1.14,1.02-1.13,1.86-.01,2.43,0,8.57,0,16.5.02,22.64-.04,59.79.03,66.29.37,1.89,2.03,2.73,3.9,2.73M795.36,337.63h0c-6.5,0-12.18,4.05-16.73,7.3-.7.5-1.37.98-2.02,1.42l-.09.06-.08.06c-2.88,2.12-5.84,4.09-9.9,6.6-4.55,2.81-9.17,5.85-13.65,8.78-11.68,7.68-23.76,15.62-36.15,20.54l-.19.08-.18.09c-6.91,3.3-8.34,8.61-8.31,12.49.02,3.95,1.53,7.77,2.98,11.47l.25.63c1.77,4.44,1.75,9.51,1.72,14.87-.01,3.01-.03,6.13.27,9.3.35,3.71.65,7.32.47,10.76-.92,15.57-.17,31.97.55,47.83.91,20.11,1.86,40.91-.67,59.73-.87,3.73-2.96,8.19-4.97,12.51-1.44,3.08-2.8,5.99-3.75,8.69-1.55,4.15-1.45,7.84.3,10.94,2.95,5.26,9.18,6.43,14.18,7.38,1.42.27,2.76.52,3.76.82l.09.03.09.02c22.27,5.81,43.04,13.72,60.42,20.69l.3.12.32.09c1.61.45,3.24.68,4.84.68,7.26,0,12.64-4.57,16.95-8.23,1.41-1.2,2.75-2.34,4.04-3.24,7.96-5.61,15.48-11.51,22.76-17.22,11.42-8.96,22.21-17.42,34.42-24.74l.03-.02.03-.02c4.75-2.92,7.38-6.2,8.05-10.02.86-4.52-1.17-9.22-5.08-11.72l-.07-.04-.07-.04c-1.87-1.13-3.96-1.71-6.22-1.71-6.38,0-12.33,4.57-17.57,8.61-1.82,1.4-3.54,2.73-4.69,3.36l-.23.13-.22.15c-2.09,1.41-4.19,2.88-6.22,4.3-3.01,2.11-6.12,4.28-9.16,6.24l-.04.03-.04.03c-4.25,2.84-7.85,4.22-11.02,4.22-1.57,0-3.04-.34-4.5-1.04l-.18-.09-.19-.07c-.82-.33-1.65-.68-2.53-1.06-2.43-1.04-4.95-2.11-7.74-2.84-1.64-.45-3.17-.77-4.65-1.08-2.03-.43-3.96-.83-5.76-1.5-1.15-.49-2.34-.95-3.48-1.4-4.6-1.8-8.95-3.5-11.07-6.54-1.48-2.21-1.35-5.05-1.01-9.47.18-2.32.36-4.72.19-7.26-.22-6.12-.48-12.37-.72-18.42-.24-5.9-.49-12-.7-17.97.09-.89.52-2.12,2.58-3.92l.83-.71c2.55-2.19,4.96-4.26,7.4-6.17,14.94-10.68,29.79-22.32,44.14-33.57,13.16-10.32,26.76-20.98,40.42-30.89l.07-.05.07-.05c1.53-1.18,3.66-3.07,4.68-5.99,3.91-10.65-11.61-23.24-37.6-42.67-6.65-4.97-12.92-9.66-15.23-12.05l-.18-.19-.2-.17c-1.92-1.67-3.52-3.2-5.02-4.81l-.06-.07-.07-.07c-1.05-1.05-2.13-2.36-3.27-3.74-2.16-2.62-4.61-5.59-7.72-7.79l-.13-.09-.13-.08-.14-.09-.09-.06-.09-.05c-2.29-1.34-4.79-2.02-7.44-2.02h0ZM770.56,463.42c-.02-6.7-.01-18.99,0-31.82,0-10.47,0-21.38,0-30.13,0-3.16,0-6.04,0-8.51,0-1.85,0-3.48,0-4.82,2.52.78,6.16,4.05,7.64,5.39l.02.02.02.02c8.87,7.85,19.87,18.17,28.71,26.92,2.45,2.47,5.85,6.1,7.75,9.6-1.41,1.06-3,2.05-4.67,3.1-2.49,1.56-5.07,3.18-7.49,5.26-2.78,2.27-5.56,4.63-8.24,6.91-7.54,6.41-15.33,13.03-23.74,18.08h0Z"
             id="path6111" />
        </g>
      </g>
      <g
         id="g6135">
        <g
           id="g6121">
          <path
             class="cls-7"
             d="M211.98,434.61c-15.19,0-32.15-10.91-39.45-25.38-4.18-7.93-5.38-16.68-3.34-24.6,2.35-10.12,11.05-20.96,22.52-20.96,2.13,0,4.27.39,6.35,1.17,11.18,4.23,18.29,17,16.62,29.77-.07,2.09-.73,4.2-1.37,6.24-.5,1.6-1.12,3.56-1.04,4.6.85,1.2,3.3,1.3,4.07,1.3,2.78,0,5.52-.88,6.89-1.7,7.83-4.86,5.35-17.2,1.19-24.01-3.67-6.07-9.74-10.82-15.6-15.42-1.48-1.16-2.94-2.3-4.36-3.46-11.61-9.69-33.16-27.7-33.1-44.89.02-6.27,2.86-11.81,8.43-16.47,4.24-4.71,8.46-7,12.89-7,3.27,0,6.52,1.22,9.94,3.71,9.73,7.15,15.96,17.53,19.81,24.71,3.75,7.14,6.69,14.91,8.76,23.1.48,1.78,1.14,3.85,2.35,5.38,3.9,4.08,10.18,8.59,17.25,12.38,1.61.87,2.64,1.05,3.23,1.05.65,0,.92-.21,1.13-.53.69-1.01.88-3.48-.33-6.52-1.18-3.24-3.54-5.4-6.27-7.9-1.93-1.76-3.92-3.58-5.6-5.9-8.65-10.1-12.2-24.84-8.83-36.71,2.56-9.05,8.96-15.61,18-18.48,2-.58,3.97-.87,5.93-.87,10.9,0,19.31,8.5,21.15,16.72,1.5,6.7-1.3,12.44-7.47,15.35l-.17.08-.18.06c-1.23.41-2.43.61-3.56.61-5.71,0-8.3-4.82-10.38-8.69-.71-1.32-1.38-2.56-2.1-3.55l-.07-.1c-.77-1.15-2.03-1.89-2.73-2.01-.03.13-.07.33-.09.62-.07,1.05.16,3.41,2.5,7.79,4.7,8.48,16.41,20.29,26.11,20.29,3.13,0,5.79-1.23,8.13-3.78,3.47-4.01,3.56-10.64,2.08-15.41-.88-2.7-2.64-5.14-4.5-7.74-1.62-2.27-3.3-4.61-4.55-7.34-4.03-7.56-5.73-16.47-4.68-24.47,1.19-9.08,5.84-16.6,13.09-21.18,3.92-2.6,8.48-4.04,12.78-4.04,3.64,0,6.93,1,9.79,2.96,1.26.9,2.39,1.83,3.49,2.73,1.7,1.4,3.31,2.72,5.07,3.69,6.4,3.04,11.3,8.93,14.58,17.52.5,1.2,1.07,2.51,1.86,3.31l.09.1c.28.31.68.5,1.09.5.32,0,.59-.12.8-.35,1.25-1.4.69-4.6.15-6.88-1.35-5.32-4.49-10.09-7.81-15.13-.93-1.42-1.9-2.88-2.82-4.35-2.47-3.57-5.13-8.24-3.9-12.83.92-3.47,3.75-6.24,8.91-8.71,2.27-1.35,4.27-2.01,6.11-2.01,3.53,0,5.58,2.25,7.06,4.83.42-3.52,1.22-7.09,2.87-10.18,4.03-8.35,11.97-13.95,19.76-13.95,5.29,0,9.93,2.52,13.25,7.07,2.39-11.86,11.95-20.91,23-21.64.49-.05,1.08-.08,1.64-.08,14.24,0,18.63,16.96,22.16,30.59,1.92,7.41,4.29,16.58,7.41,17.1.87-1.06,2.07-4.52,1.83-7.52-.15-2.25-.77-4.37-1.42-6.63-.55-1.91-1.13-3.89-1.48-6.11-.75-4.11-.97-8.33-.63-12.47.83-10.76,5.7-19.93,13.38-25.14,5.36-3.59,11.94-5.65,18.07-5.65s11.15,1.88,15.13,5.42c4.37,4.11,6.69,9.93,6.62,16.44-.08,7.17-3.12,14.13-8.11,18.64-1.7,1.65-3.6,3.11-5.63,4.32-1.22.79-2.52,1.36-3.67,1.86-1,.44-2.02.89-2.51,1.32.2,2.05,3.98,5.81,7.23,7.03,1.18.4,2.38.62,3.48.62,5.98,0,9.19-6.81,10.19-13.19l.02-.1.02-.09c1-4.44,3.74-6.02,5.98-6.02,3.15,0,5.71,2.75,6.51,7l.03.13v.13c.83,8.4-2.16,17.04-8.21,23.71-6.28,6.93-14.87,10.9-23.55,10.9-4.22,0-8.28-.94-12.07-2.8-1.93-.67-3.62-1.94-5.25-3.18-1.14-.86-2.39-1.81-3.38-2.22-.3.53-.65,1.4-.91,2.03-.43,1.06-.93,2.27-1.61,3.45-1.79,3.35-3.97,6.02-6.62,8.1-4.78,3.5-9.04,5.17-13.13,5.17-13.59,0-19.35-18.47-23.99-33.31-1.02-3.27-1.98-6.35-2.96-9.05-.79-2.39-2.81-4.78-3.74-5.12-.08.08-.2.22-.36.48-4.69,11.69,1.67,25.29,7.28,37.3.43.93.86,1.84,1.27,2.74.17.4.32.73.48,1.06,1.09,2.37,2.58,5.62.72,8.79l-.12.21-.15.19c-3.36,4.06-11.13,7.75-16.3,7.75-.67,0-1.3-.06-1.89-.18l-.14-.03c-1.94-.49-4.67-2-6.72-6.41-.86-1.95-1.69-3.88-2.53-5.81-1.58-3.65-3.21-7.42-4.88-11.02l-.7-1.5c-2.04-4.37-4.36-9.33-7.08-13.68-2.63-4.22-4.18-4.33-4.19-4.33-.59.21-2.12,3.21-1.31,8.57l.02.15c.98,9.95,6.06,19.06,10.97,27.87,1.5,2.69,3.06,5.48,4.47,8.25l.11.21.07.22c.73,2.23.57,4.48-.47,6.51-1.84,3.61-6.22,6.41-13.77,8.82l-.15.05-.15.03c-.53.11-1.05.17-1.56.17-3.96,0-5.99-3.1-7.47-5.37-.52-.79-1.13-1.73-1.67-2.25-.25.23-.53.5-.77.73-.86.84-1.93,1.88-3.25,2.72-.89.6-1.88,1.08-2.83,1.55-1.44.7-2.69,1.31-3.27,2.22-.6.95-.77,2.59-.94,4.18-.1.94-.2,1.92-.39,2.88-.75,4.32-2.3,8.08-4.59,11.11-4.26,5.72-11.24,9.14-18.66,9.14-1.56,0-3.11-.16-4.62-.46-.87-.11-1.78-.36-2.66-.6-.93-.25-1.98-.53-2.69-.57-.24.78-.29,2.04-.33,3.1-.04,1.09-.09,2.21-.29,3.32-.46,3.49-1.36,6.82-2.66,9.92-4.81,11.94-16.9,20.31-29.38,20.31-1.11,0-2.22-.06-3.32-.19h-.08c-.63,0-.96.07-1.1.12-.02.09-.05.24-.07.49,1.12,8.32-.97,16.45-5.61,21.8-3.57,4.11-8.38,6.29-13.9,6.29-1.67,0-3.41-.2-5.18-.6l-.26-.07c-.83-.22-1.67-.44-2.37-.59.06.32.15.71.28,1.18,3.81,14.54-.71,29.72-11.51,38.69-5.27,4.41-11.81,6.75-18.92,6.75ZM189.81,392.45c6.1,6.87,8.6,7.96,9.42,8.09.93-1.88.02-5.68-2.29-9.41-2.96-4.79-7.47-8.39-10.48-8.39-.16,0-.31.01-.46.03-.46.36-.58.69-.63.98-.14.78,0,3.17,4.15,8.37l.3.33ZM193.49,310.43c2,2.92,6.83,8.75,18.24,20.32-2.85-4.83-5.6-8.73-8.86-12.56-2.25-2.72-6.32-6.39-9.38-7.76ZM316.02,298.56c3,1.84,5.35,2.73,7.17,2.73.88,0,1.59-.21,2.25-.64.85-.71,1.45-2.49,1-4.09-.28-1.04-1.2-2.01-2.82-2.98-5.01-2.95-16.75-11.1-17.2-22.63v-.14c.02-2.9-.6-3.76-.8-3.95-.07-.07-.25-.25-.89-.25-.13,0-.28,0-.42.02l-.17.02c-1.27.14-2.59,1.13-3.35,2.53-4.41,8.55,7.48,24.08,15.22,29.39ZM463.71,196.43c-.43,0-.68.11-.96.43-1.62,1.89-1.97,8.06-.85,15.34l.04.24c.22,1.31.58,3.39.99,4.26,2.06-.15,3.53-3.35,4.18-6.09,1.36-5.76.21-12.45-2.38-14-.39-.11-.74-.17-1.03-.17Z"
             id="path6117" />
          <path
             class="cls-6"
             d="M467.69,184.21c4.8,0,9.46,1.39,13.13,4.66,8.48,7.99,6.86,23.09-1.55,30.65-1.54,1.51-3.27,2.83-5.12,3.94-2.98,1.92-6.29,2.36-7.51,4.61l-.05.11c-.88,4.22,5.23,9.43,9.1,10.89,1.63.55,3.14.81,4.54.81,7.78,0,11.92-7.91,13.16-15.72.56-2.51,1.79-3.67,3.05-3.67,1.48,0,3.01,1.61,3.56,4.56,1.63,16.63-13.16,31.32-28.79,31.32-3.66,0-7.37-.81-10.93-2.58-3.52-1.1-6.95-5.73-10.51-5.83-2.18.63-2.66,4.21-4.37,7.18-1.49,2.77-3.32,5.24-5.88,7.24-4.33,3.17-8.05,4.53-11.27,4.53-13.99,0-18.77-25.58-24.13-40.39-.9-2.72-3.86-7.13-6.66-7.13-1.05,0-2.07.62-2.96,2.18-5.74,13.91,2.57,29.74,8.53,42.62,1.01,2.34,2.59,4.94,1.33,7.08-2.64,3.19-9.58,6.67-13.98,6.67-.46,0-.89-.04-1.29-.12-2.24-.57-3.76-2.66-4.73-4.76-2.45-5.56-4.84-11.33-7.41-16.83-2.31-4.92-4.83-10.5-7.96-15.5-2.54-4.07-4.87-5.74-6.73-5.74-3.38,0-5.26,5.46-4.28,12.01,1.35,13.72,9.7,25.32,15.76,37.19,2.05,6.25-6.81,9.79-12.3,11.54-.33.07-.65.1-.95.1-4.43,0-5.18-7.22-9.24-7.97-1.5.11-3.11,2.72-5.55,4.27-2.32,1.57-5.47,2.24-7.02,4.7-1.41,2.23-1.21,5.43-1.73,8.08-.62,3.55-1.86,7-4.04,9.89-3.8,5.11-10.03,7.95-16.27,7.95-1.39,0-2.77-.14-4.13-.43-1.65-.19-4.1-1.21-5.98-1.21-.85,0-1.59.21-2.1.8-1.44,2.05-.85,5.55-1.35,8.15-.41,3.18-1.22,6.28-2.46,9.23-4.35,10.78-15.12,18.48-26.62,18.48-1.04,0-2.08-.06-3.12-.19-.09,0-.18,0-.27,0-2.66,0-4.15.92-4.18,3.77,1.72,12.1-4.1,24.92-16.5,24.92-1.42,0-2.93-.17-4.52-.53-1.85-.49-3.38-.9-4.48-.9-1.86,0-2.5,1.18-1.42,5.14,3.3,12.6-.15,26.97-10.53,35.6-5.05,4.23-10.95,6.05-17,6.05-14.65,0-30.19-10.69-36.78-23.73-3.62-6.86-5.06-14.93-3.11-22.5,2.14-9.23,10.05-18.7,19.62-18.7,1.72,0,3.5.31,5.3.98,10.4,3.93,16.13,16.05,14.67,26.72-.06,3.87-3.09,8.92-2.28,12.1,1.11,2.39,3.91,3.28,6.94,3.28s6.43-.93,8.43-2.13c9.51-5.9,7.25-19.89,2.21-28.14-4.9-8.09-13.38-13.72-20.62-19.64-15.67-13.09-46.14-39.04-24.48-56.87,3.47-3.9,6.96-6.16,10.8-6.16,2.54,0,5.23.99,8.17,3.14,8.3,6.1,14.16,14.78,18.93,23.7,3.71,7.07,6.55,14.7,8.5,22.42.64,2.38,1.47,4.74,3,6.62,4.74,5,11.95,9.76,18.09,13.04,1.81.98,3.36,1.41,4.64,1.41,4.62,0,5.82-5.56,3.6-11.15-2.32-6.38-8.46-9.2-12.31-14.55-13.22-15.33-14.21-43.52,7.72-50.48,1.71-.5,3.4-.73,5.03-.73,15.24,0,25.81,20.03,12.4,26.35-.97.32-1.84.46-2.62.46-5.43,0-7.01-6.86-10.06-11.01-1.29-1.92-3.57-3.35-5.41-3.35-1.53,0-2.76.98-2.89,3.48-.19,2.88,1.33,6.51,2.85,9.37,5.17,9.34,17.64,21.88,28.76,21.88,3.7,0,7.25-1.39,10.34-4.75,4.1-4.74,4.63-12.24,2.73-18.33-1.89-5.76-6.7-9.93-9.22-15.51-7.42-13.85-6.75-32.89,7.32-41.78,3.29-2.18,7.27-3.58,11.18-3.58,2.82,0,5.61.73,8.09,2.43,3.02,2.15,5.62,4.85,8.9,6.62,6.52,3.07,10.56,9.17,13.14,15.91.64,1.56,1.36,3.16,2.52,4.34.87.97,2.1,1.5,3.32,1.5,1.1,0,2.2-.42,3.02-1.33,2.24-2.5,1.57-6.52.85-9.59-1.91-7.51-6.9-13.79-11.04-20.45-5.38-7.76-5.62-12.72,3.92-17.25,1.92-1.16,3.44-1.66,4.68-1.66,4.36,0,5.26,6.07,8.14,10.49.52.89.88,1.36,1.11,1.36.07,0,.12-.04.17-.12.34-5.75.24-13.25,3.2-18.72,3.61-7.52,10.51-12.32,17.08-12.32,5.19,0,10.17,2.99,13.16,10,.84,1.72,1.36,2.4,1.69,2.4.83,0,.52-4.21,1.2-7.01,1.75-10.13,9.75-19.26,20.39-19.96.49-.05.97-.07,1.44-.07,21.17,0,17.09,47.71,29.85,47.71.24,0,.48-.02.73-.05,2.56-1.23,4.11-6.93,3.81-10.73-.31-4.5-2.19-8.31-2.94-12.98-.72-3.92-.92-7.86-.61-11.75.68-8.89,4.55-17.79,12.07-22.9,4.67-3.13,10.62-5.13,16.39-5.13M462.79,219.71c8.93,0,10.76-22.06,3.13-25.88-.81-.27-1.55-.39-2.2-.39-7.02,0-5.54,14.18-4.77,19.22.53,3.07.98,6.03,2.63,6.88l.12.06c.38.07.75.11,1.1.11M323.19,304.29c1.41,0,2.78-.36,4.03-1.23,1.91-1.48,2.86-4.6,2.11-7.31-.58-2.14-2.31-3.64-4.17-4.75-7.51-4.43-15.42-11.78-15.75-20.18.03-3.45-.7-7.22-4.68-7.22-.23,0-.48.01-.74.04l-.18.02c-2.41.26-4.51,1.96-5.67,4.08-5.38,10.42,7.5,27.4,16.23,33.34,2.69,1.65,5.85,3.21,8.8,3.21M219.87,342.52c1.78,0-4.26-11.06-5.13-12.56-2.86-4.92-5.83-9.3-9.58-13.72-2.46-2.98-9.07-9.36-13.75-9.36-.7,0-1.35.14-1.94.46l-.06.07c-3.1,3.03,24.39,29.6,27.92,33.17,1.35,1.37,2.16,1.94,2.56,1.94M199.41,403.56c1.01,0,1.87-.48,2.47-1.63,3.55-7.12-7.26-22.19-15.44-22.19-.54,0-1.07.07-1.59.21l-.14.06c-5.41,3.33-.34,10.5,2.5,14.05,1.94,2.17,8.22,9.51,12.2,9.51M467.69,178.21h0c-6.71,0-13.9,2.24-19.73,6.14-8.46,5.74-13.82,15.73-14.71,27.42-.35,4.35-.13,8.81.68,13.23.39,2.37,1.01,4.51,1.55,6.4.63,2.18,1.18,4.07,1.31,5.96v.03s0,.03,0,.03c.02.26.03.54.02.82-1.26-3.31-2.5-8.08-3.36-11.39-1.74-6.74-3.72-14.38-6.95-20.44-4.38-8.22-10.48-12.39-18.11-12.39-.63,0-1.28.03-1.93.09-10.64.74-20.02,8.29-24.11,18.77-3.36-2.74-7.4-4.22-11.85-4.22-9.04,0-17.83,6.12-22.43,15.59-.88,1.65-1.53,3.39-2.03,5.17-1.42-.89-3.14-1.45-5.23-1.45-2.36,0-4.82.77-7.52,2.36-3.81,1.84-8.88,4.92-10.39,10.59-1.53,5.75,1.47,11.16,4.3,15.25.93,1.49,1.89,2.94,2.82,4.36,1.02,1.55,2.02,3.07,2.95,4.58-2.79-3.5-6.07-6.16-9.84-7.97-1.5-.83-2.97-2.05-4.54-3.33-1.13-.93-2.31-1.9-3.61-2.83l-.04-.03-.04-.03c-3.32-2.28-7.29-3.49-11.48-3.49-4.86,0-9.99,1.61-14.44,4.54-7.98,5.07-13.1,13.33-14.41,23.29-.71,5.39-.26,11.16,1.24,16.7-4.38-4.53-10.6-7.76-17.76-7.76-2.25,0-4.5.33-6.71.97l-.07.02-.07.02c-10.03,3.18-17.13,10.47-19.98,20.52-3.62,12.77.14,28.56,9.36,39.39,1.85,2.52,4.02,4.5,5.93,6.25,2.54,2.32,4.55,4.16,5.45,6.63l.03.08.03.08c.38.97.56,1.82.63,2.48-.14-.07-.28-.14-.44-.23-6.65-3.56-12.75-7.91-16.4-11.7-.83-1.11-1.36-2.81-1.73-4.2-2.13-8.41-5.15-16.38-8.99-23.7v-.02s-.02-.02-.02-.02c-3.98-7.44-10.46-18.2-20.67-25.71-3.91-2.86-7.85-4.3-11.73-4.3-5.28,0-10.18,2.56-14.98,7.83-6.18,5.22-9.32,11.48-9.35,18.62-.06,17.41,19.44,34.82,31.74,45.17-.32-.14-.64-.27-.97-.39-2.45-.91-4.94-1.37-7.42-1.37-12.99,0-22.79,11.98-25.44,23.28-2.2,8.61-.92,18.08,3.61,26.68,7.92,15.63,25.62,26.97,42.11,26.97,7.82,0,15.03-2.58,20.85-7.45,10.8-8.98,15.8-23.67,13.25-38.21,1.3.2,2.59.3,3.84.3,6.42,0,12.01-2.53,16.16-7.32,4.63-5.34,7.01-13.09,6.59-21.2.44.02.88.03,1.32.03,13.87,0,26.79-8.91,32.17-22.19,1.39-3.31,2.35-6.87,2.85-10.58.2-1.12.26-2.21.31-3.21.71.19,1.45.36,2.2.46,1.67.33,3.39.5,5.12.5,8.36,0,16.24-3.87,21.08-10.36,2.55-3.37,4.28-7.55,5.13-12.38.21-1.08.32-2.14.42-3.08.1-.97.25-2.41.48-2.88.29-.29,1.35-.8,2.05-1.15.98-.48,2.09-1.02,3.2-1.76.7-.45,1.34-.95,1.91-1.43,1.62,2.42,4.45,6.12,9.58,6.12.71,0,1.44-.08,2.17-.23l.31-.06.3-.09c5.26-1.68,12.6-4.57,15.53-10.32,1.41-2.76,1.64-5.81.65-8.81l-.15-.44-.21-.42c-1.44-2.82-3.01-5.63-4.52-8.35-4.98-8.93-9.69-17.37-10.61-26.7v-.15s-.04-.15-.04-.15c-.14-.92-.19-1.75-.19-2.49.06.09.12.19.18.29,2.62,4.19,4.8,8.86,6.91,13.36l.71,1.51c1.65,3.54,3.27,7.3,4.84,10.93.84,1.94,1.67,3.87,2.51,5.78l.02.05.02.05c2.54,5.48,6.13,7.41,8.7,8.06l.14.04.14.03c.78.16,1.61.24,2.48.24,6.01,0,14.71-4.13,18.61-8.84l.31-.37.24-.42c2.65-4.52.63-8.93-.58-11.56-.14-.31-.28-.62-.42-.92l-.03-.07-.03-.07c-.42-.9-.85-1.82-1.28-2.75-4.5-9.62-9.5-20.32-8.49-29.71.88,2.48,1.76,5.3,2.68,8.27,4.93,15.78,11.06,35.42,26.85,35.42,4.74,0,9.59-1.86,14.82-5.69l.08-.06.08-.06c2.96-2.32,5.39-5.28,7.42-9.05.48-.84.87-1.68,1.2-2.45.08.06.16.12.23.17,1.69,1.29,3.6,2.73,5.9,3.56,4.16,2.01,8.61,3.03,13.23,3.03,9.52,0,18.91-4.33,25.77-11.89,6.62-7.3,9.9-16.78,8.99-26.02l-.03-.27-.05-.27c-1.24-6.52-5.64-9.44-9.46-9.44-3.4,0-7.52,2.2-8.91,8.36l-.04.19-.03.19c-.17,1.09-1.84,10.66-7.23,10.66-.75,0-1.59-.15-2.51-.46-1.34-.53-2.98-1.8-4.07-2.95,1.08-.48,2.36-1.07,3.66-1.9,2.19-1.32,4.23-2.88,6.06-4.66,5.58-5.07,8.97-12.83,9.06-20.8.09-7.36-2.58-13.96-7.5-18.6l-.06-.06-.06-.05c-4.54-4.05-10.46-6.18-17.12-6.18h0ZM464.48,208.54c-.25-2.64-.25-4.86-.12-6.52.25,1.17.4,2.65.33,4.38-.03.76-.11,1.48-.21,2.14h0ZM317.65,296.04c-7.59-5.25-17.23-19.11-14.23-25.41,0,.05,0,.1,0,.15v.14s0,.14,0,.14c.51,13.01,13.24,21.9,18.69,25.11,1.21.73,1.43,1.18,1.43,1.18.08.3.02.67-.06.91-.08.01-.17.02-.3.02-.85,0-2.49-.39-5.54-2.25h0ZM267.82,323.04c1.45,0,2.96-.26,4.5-.76l.35-.11.33-.16c6.35-2.99,9.83-8.66,9.58-15.28.59.87,1.19,1.7,1.76,2.5,1.71,2.38,3.32,4.64,4.08,6.92,1.43,4.65.81,9.77-1.5,12.51-1.74,1.87-3.6,2.74-5.86,2.74-4.03,0-10.17-3.26-15.65-8.59.75.15,1.55.23,2.41.23h0ZM217.67,394.86c1.06-8.38-1.32-16.76-6.05-23.16,4.03,3.32,7.77,6.84,10.22,10.89,3.67,6.01,5.62,16.24-.2,19.91-1.06.62-3.31,1.25-5.31,1.25-.29,0-.54-.01-.76-.03.18-.66.41-1.39.59-1.97.65-2.09,1.39-4.44,1.5-6.89h0ZM191.81,390.18c-.82-1.04-1.45-1.92-1.93-2.67,1.35,1.09,2.84,2.65,4.16,4.65.29.44.56.88.79,1.29-.8-.82-1.72-1.81-2.77-2.99l-.25-.28h0Z"
             id="path6119" />
        </g>
        <g
           id="g6127">
          <path
             class="cls-7"
             d="M113.5,570.98c-1.65,0-3.29-.19-4.87-.55-15.04-3.14-26.67-17.69-31.07-29.87-4.02-11.7-3.05-25.41,2.52-35.81,4.11-7.7,11.29-11.76,20.76-11.76,2.86,0,5.88.38,8.98,1.13,9.56,2.07,19.28,6.05,28.69,9.9,4.83,1.98,9.4,3.85,13.92,5.46,3.66,1.28,6.76,2.33,10.45,3.04,1,.17,2.11.34,3.16.34.83,0,1.49-.1,2.02-.32.71-.46.76-.81.78-.97.1-.7-.16-2.87-4.76-7.81-12.76-12.72-29.6-23.09-51.5-31.69-5.88-2-8.45-6.6-6.89-12.32,1.09-4.66,2.83-9.2,5.01-13.14,2.34-4.52,6.02-5.48,8.69-5.48,1.86,0,3.92.48,6.11,1.42,4.63,1.7,9.45,3.75,14.11,5.73,5.14,2.19,10.45,4.45,15.39,6.18,1.86.61,3.8,1.28,5.75,1.96,8.45,2.93,17.19,5.96,25.52,5.96.6,0,1.2-.02,1.8-.05,2.49-.29,3.01-.93,3.01-.94.26-.86-1.77-4.67-7.65-9.52-13.24-10.45-37.42-22.89-56.04-25.27l-.15-.02c-.42-.08-.91-.11-1.5-.11-.95,0-1.98.09-3.07.19-1.15.11-2.35.21-3.52.21-6.76,0-8.63-4.33-9.01-7.96-.94-7.92,3.68-16.26,10.75-19.35,2.24-.92,4.7-1.37,7.37-1.37,16.91,0,40.47,17.9,56.72,31.36l.11.09c21.78,19.82,29.63,36.77,23.34,50.37-3.33,6.85-10.43,11.51-19.02,12.52-1.87.26-3.97.39-6.19.39-2.32,0-4.79-.14-7.57-.43-.53-.04-1.06-.09-1.56-.15,6.12,6.92,12.51,15.04,14.31,24.68,1.59,7.67-.29,16.3-4.81,21.95-3.53,4.42-8.35,6.82-13.94,6.96-.82.08-1.68.12-2.55.12-11.24,0-25.79-6.45-39.85-12.69-11.97-5.31-24.35-10.8-32.1-10.8-1.62,0-2.97.24-4.04.72-1.36.88-1.71,3-1.35,4.68,1.43,7.01,12.26,12.22,20.99,12.23h.22c1.86,0,4.07-.54,6.56-1.6,1.58-.69,3.11-1.04,4.53-1.04,2.21,0,4.17.85,5.66,2.47,5.64,5.96,6.03,16.34.87,23.61-3.04,4.6-8.7,7.39-15.09,7.39Z"
             id="path6123" />
          <path
             class="cls-6"
             d="M128.26,401.18c17.35,0,43.62,21.39,54.81,30.67,12.18,11.09,30.22,30.51,22.63,46.89-3.11,6.39-9.74,9.99-16.65,10.8-1.91.26-3.87.37-5.84.37-2.45,0-4.91-.17-7.31-.42-2.11-.14-4.17-.63-5.63-.63-.75,0-1.35.13-1.71.5l-.03.05c-.18,1.39,1.53,2.73,2.36,3.83,6.24,6.97,12.81,14.95,14.56,24.31,2.29,11.04-3.25,25.13-15.98,25.36-.77.08-1.56.11-2.38.11-20.42,0-54.49-23.49-71.96-23.49-2.07,0-3.9.33-5.45,1.07-2.7,1.58-3.5,5.04-2.86,7.96,1.83,8.94,14.42,14.58,23.92,14.59.08,0,.15,0,.23,0,2.67,0,5.42-.85,7.74-1.84,1.1-.48,2.25-.8,3.35-.8,1.26,0,2.45.42,3.46,1.5,4.92,5.2,4.69,14.11.63,19.84-2.77,4.19-7.74,6.12-12.65,6.12-1.42,0-2.84-.16-4.2-.48-13.05-2.72-24.33-15.25-28.93-27.97-3.61-10.52-3.03-23.34,2.34-33.37,3.94-7.37,10.73-10.18,18.12-10.18,2.71,0,5.51.38,8.27,1.05,14.16,3.07,28.75,10.44,42.3,15.28,3.76,1.32,7.02,2.41,10.89,3.16,1.19.21,2.47.39,3.73.39,1.19,0,2.36-.17,3.41-.65,5.61-3.31.1-9.99-3.21-13.53-14.81-14.79-33.34-24.86-52.63-32.43-4.22-1.42-6.23-4.39-5.01-8.77,1.01-4.31,2.59-8.58,4.73-12.42,1.47-2.84,3.62-3.94,6.07-3.94,1.57,0,3.27.46,4.99,1.2,9.68,3.54,20.08,8.61,29.62,11.95,10.45,3.44,21.46,8.09,32.26,8.09.69,0,1.37-.02,2.06-.06,11.64-1.3,3.02-10.81-2.98-15.76-14.74-11.63-39.3-23.6-57.58-25.93-.65-.12-1.33-.16-2.03-.16-2.15,0-4.5.41-6.59.41-3.07,0-5.57-.89-6.02-5.27-.77-6.49,2.96-13.66,8.97-16.29,1.88-.77,3.95-1.12,6.17-1.12M128.26,395.18c-3.07,0-5.91.53-8.45,1.57l-.06.03-.06.03c-8.22,3.59-13.6,13.24-12.53,22.45.35,3.23,2.21,10.6,11.99,10.6,1.31,0,2.57-.12,3.79-.23,1.02-.09,1.99-.18,2.8-.18.5,0,.81.04.97.07l.15.03.15.02c18.06,2.31,41.57,14.41,54.57,24.65,2.46,2.04,4.13,3.82,5.17,5.15-.16,0-.32,0-.48,0-7.82,0-16.32-2.95-24.53-5.8-1.9-.66-3.86-1.34-5.79-1.97-4.83-1.7-10.08-3.93-15.15-6.09-4.67-1.99-9.51-4.04-14.18-5.76-2.54-1.08-4.96-1.63-7.21-1.63-4.91,0-8.94,2.52-11.35,7.09-2.33,4.2-4.1,8.84-5.26,13.79-1.93,7.16,1.49,13.37,8.76,15.88,21.45,8.43,37.93,18.56,50.38,30.96,1.66,1.78,2.62,3.07,3.17,3.96-.57-.06-1.16-.15-1.71-.24-3.46-.67-6.44-1.68-9.98-2.92-4.42-1.58-8.96-3.44-13.76-5.4-9.5-3.89-19.33-7.91-29.19-10.06-3.31-.8-6.54-1.2-9.62-1.2-10.49,0-18.81,4.74-23.41,13.35-5.94,11.11-6.99,25.73-2.72,38.15l.02.05.02.05c4.83,13.36,16.99,28.36,33.28,31.79,1.79.41,3.63.62,5.49.62,7.37,0,13.94-3.26,17.6-8.73,5.89-8.38,5.37-20.36-1.2-27.33-.07-.07-.14-.15-.21-.22,13.19,5.81,26.54,11.33,37.41,11.33.93,0,1.85-.04,2.73-.12,6.37-.18,12.08-3.05,16.1-8.08,5.11-6.4,7.18-15.75,5.4-24.43-1.48-7.81-5.64-14.58-10.34-20.52.76.03,1.49.04,2.22.04,2.33,0,4.55-.14,6.6-.42,9.59-1.14,17.55-6.42,21.29-14.13l.02-.05.02-.05c6.91-14.93-1.18-33.04-24.04-53.85l-.1-.09-.11-.09c-7.3-6.04-16.05-13.06-25.68-19.24-13.42-8.62-24.2-12.81-32.95-12.81h0ZM92.74,525.83c.63-.2,1.45-.3,2.4-.3,6.41,0,16.84,4.34,27.38,8.99-.15,0-.3,0-.46,0-1.83,0-3.75.44-5.73,1.29-2.63,1.12-4.37,1.35-5.36,1.35h-.12s-.05,0-.05,0h-.05c-8.89,0-17.14-5.37-18.05-9.8v-.04s-.02-.04-.02-.04c-.14-.64-.04-1.19.06-1.45h0Z"
             id="path6125" />
        </g>
        <g
           id="g6133">
          <path
             class="cls-7"
             d="M590.29,251.82c-1.02,0-2.07-.06-3.11-.19-7.43-.81-14.23-4.72-18.64-10.7l-.08-.11c-.95-1.41-1.54-2.1-1.89-2.43-.52.45-1.3,1.3-1.96,2.02-.45.49-.93,1.01-1.46,1.57-5.11,5.26-11.82,8.27-18.43,8.27-9.62,0-17.44-6.18-20.42-16.12-3.44-10.3-3.99-21.27-4.51-31.88-.14-2.89-.29-5.89-.5-8.79-.1-.28-.58-.53-2-1.08-1.98-.77-5.29-2.05-5.77-6-.51-5.2,2.98-7.12,5.07-8.27,1.72-.95,2.04-1.24,2.09-1.93v-.13s.03-.13.03-.13c.16-.92.15-2.1.13-3.35-.03-2.45-.06-5.22,1.22-7.62,2.01-4.08,11.28-4.53,15.18-4.53,6.65,0,8.5,1.32,9.12,1.83,3.67,2.72,3.43,7.03,3.26,10.18-.07,1.29-.15,2.62.05,3.52.22.06.59.12,1.16.16h.1s.1.02.1.02c.39.05.85.08,1.42.08.66,0,1.34-.03,2.03-.07.8-.04,1.6-.08,2.39-.08,1.78,0,4.1.16,6.2,1.42l.16.1.15.12c1.53,1.2,2.29,3.08,2.09,5.16-.26,2.66-2.07,5.37-4.43,6.65-2.66,1.67-5.72,2.12-8.1,2.32h-.11c-3.22.16-3.35.9-3.36,1.3.1,1.93.13,4.27.16,6.75.12,9.36.29,23.47,4.72,28.27.81.72,1.41.72,1.61.72,1.8,0,4.3-2.47,5.25-5.17l.06-.17c1.22-2.93,1.22-5.88,1.21-9.3,0-1.19,0-2.43.05-3.71.21-6.87,2.22-13.57,5.81-19.35,3.26-5.29,7.86-8.94,12.95-10.28,1.01-.28,2.04-.51,3.04-.73,1.5-.33,2.91-.65,4.22-1.13,4.23-1.94,8.41-2.92,12.42-2.92,6.7,0,12.67,2.68,17.25,7.76,5.88,6.52,8.66,16.1,7.61,26.27-.01.13-.02.25-.02.35.09-.05.19-.1.29-.16l.68-.38c1.74-.99,3.92-2.22,6.31-2.22,1.77,0,3.38.68,4.65,1.98l.07.07.07.08c1.61,1.89,2.17,4.23,1.57,6.58-.96,3.74-4.63,6.69-7.65,7.84-1.87.71-3.48,1.12-4.9,1.49-3.67.94-5.04,1.29-6.84,5.4l-.07.16c-6.73,13.22-16.57,20.5-27.71,20.5ZM588.49,213.58c.33,5.74,1.19,12.9,4.83,17.56,1.11,1.38,2.41,2.1,3.84,2.1,2.36,0,4.73-1.92,5.89-4.79l.05-.11c1.27-2.81,1.3-3.77,1.24-4.07-.69-.93-2.16-1.56-3.71-2.23-1.27-.55-2.59-1.11-3.81-1.95-2.64-1.59-5.21-3.7-7.64-6.27-.24-.24-.47-.48-.7-.73,0,.16,0,.32,0,.48ZM606.27,208.59c0-.16-.01-.31-.02-.45-.02-.41-.04-.82-.05-1.22-.44-4.18-1.38-9.99-4.37-12.84-.46-.45-1.17-.75-1.76-.75-.33,0-.44.07-.5.16-1.29,5.31,2.44,11.14,6.45,14.91.08.06.16.13.25.19Z"
             id="path6129" />
          <path
             class="cls-6"
             d="M535.26,163.4c3.34,0,6.29.4,7.3,1.21,4.09,2.97.78,9.42,2.61,13.17l.07.09c.59.75,1.77,1.09,3.4,1.2.58.08,1.2.11,1.83.11,1.43,0,2.94-.14,4.41-.14,1.69,0,3.31.19,4.66.99,2.14,1.68.44,5.61-2,6.85-2.02,1.31-4.45,1.72-6.84,1.93-2.92.14-6.25.91-6.22,4.38.5,9.69-.81,30.14,5.76,37.07,1.2,1.12,2.47,1.59,3.72,1.59,3.53,0,6.88-3.76,8.08-7.18,1.93-4.63,1.29-9.11,1.48-14.05.19-6.29,2.03-12.53,5.36-17.88,2.57-4.17,6.41-7.71,11.17-8.96,2.56-.71,5.18-1.06,7.65-1.99,4.01-1.86,7.8-2.7,11.28-2.7,14.41,0,23.56,14.41,21.88,30.73-.22,2.4.37,4.01,2.05,4.01.7,0,1.59-.28,2.68-.9,1.66-.91,3.66-2.21,5.51-2.21.89,0,1.74.3,2.5,1.08,3.14,3.69-1.15,8.25-4.86,9.67-6.58,2.49-10.2,1.13-13.42,8.49-5.2,10.22-13.71,18.86-25.04,18.86-.9,0-1.81-.05-2.75-.17-6.57-.72-12.68-4.21-16.58-9.5-1.9-2.83-3.16-3.98-4.35-3.98-1.57,0-3.01,1.99-5.62,4.73-4.72,4.86-10.64,7.34-16.26,7.34-7.64,0-14.73-4.58-17.54-13.98-4.3-12.88-3.94-26.81-4.9-40.23-.69-4.2-7.24-2.73-7.78-7.03-.59-5.95,6.74-4.44,7.17-9.59.54-3.13-.43-7.29,1.04-10.07.96-1.93,7.22-2.93,12.53-2.93M607.67,212.84c.23,0,.47-.05.7-.16l.08-.06c1.2-1.49.77-3.8.75-5.88-.53-5.06-1.64-11.34-5.29-14.84-.99-.97-2.45-1.57-3.83-1.57s-2.73.64-3.34,2.16c-1.82,6.75,2.5,13.7,7.36,18.2,1,.74,2.31,2.14,3.58,2.14M597.16,236.23c3.54,0,7.02-2.6,8.67-6.66,1.12-2.47,2.05-5.04,1.17-6.73-1.81-2.9-5.89-3.39-8.54-5.27-2.65-1.58-5.01-3.61-7.13-5.85-1.98-1.94-3.49-4.61-4.89-4.88h-.07c-1.29.49-.87,3.73-.88,6.81.37,6.47,1.39,14.11,5.47,19.33,1.81,2.25,4.02,3.25,6.2,3.25M535.26,157.4c-6.71,0-15.23,1.07-17.86,6.18-1.6,3.06-1.57,6.35-1.54,9,0,.91.02,1.85-.05,2.52-.21.12-.45.26-.66.37-2.19,1.21-7.31,4.03-6.61,11.12v.08s.02.08.02.08c.71,5.73,5.59,7.62,7.67,8.43.06.02.13.05.2.08.15,2.37.27,4.79.39,7.14.53,10.78,1.08,21.93,4.66,32.69,3.39,11.21,12.3,18.17,23.26,18.17,7.42,0,14.91-3.34,20.56-9.16l.02-.02.02-.02c.35-.37.68-.73,1-1.07,4.9,6.5,12.35,10.73,20.52,11.63,1.15.14,2.3.21,3.44.21,12.15,0,23.23-8.07,30.38-22.14l.08-.15.07-.16c1.21-2.77,1.56-2.86,4.84-3.7,1.42-.36,3.19-.82,5.21-1.58,3.85-1.47,8.27-5.1,9.5-9.9.85-3.32.07-6.62-2.19-9.27l-.13-.16-.15-.15c-1.84-1.88-4.19-2.88-6.79-2.88-1.47,0-2.82.32-4.05.77-.09-9.15-3.12-17.58-8.6-23.65-5.09-5.64-12.01-8.75-19.48-8.75-4.41,0-8.97,1.06-13.56,3.14-1.11.39-2.39.68-3.74.98-1.03.23-2.09.46-3.19.77-5.82,1.54-11.04,5.66-14.71,11.61-3.85,6.2-6.02,13.41-6.25,20.82-.05,1.34-.05,2.59-.05,3.81,0,3.22.01,5.77-.98,8.14l-.07.16-.06.17c-.47,1.35-1.51,2.5-2.18,2.97-3.29-4.48-3.47-18.28-3.56-25.83-.02-1.76-.04-3.45-.09-4.98.13-.01.27-.02.43-.03h.11s.11-.01.11-.01c2.7-.23,6.18-.75,9.36-2.72,3.2-1.77,5.55-5.32,5.9-8.95.3-3.12-.87-5.96-3.23-7.81l-.3-.23-.33-.19c-2.76-1.65-5.74-1.84-7.74-1.84-.88,0-1.72.04-2.53.08-.63.03-1.23.06-1.76.06.01-.21.02-.42.03-.61.19-3.39.51-9.04-4.42-12.72-.94-.75-3.34-2.45-10.96-2.45h0ZM595.66,229.26c-1.76-2.26-2.77-5.42-3.37-8.62.96.72,1.93,1.38,2.91,1.97,1.44.98,2.93,1.62,4.25,2.19.47.2,1.07.46,1.58.71-.15.39-.36.91-.66,1.59l-.05.11-.04.11c-.77,1.89-2.17,2.91-3.11,2.91-.47,0-.98-.33-1.5-.97h0Z"
             id="path6131" />
        </g>
      </g>
    </g>
    <g
       id="g6173">
      <path
         class="cls-7"
         d="M139.74,683.15c11.13,0,18.58,5.76,18.58,16.82s-7.45,16.82-18.58,16.82h-12.9v19.51h-9.52v-53.14h22.42ZM126.76,708.41h13.13c5.61,0,9.37-2.69,9.37-8.37s-3.76-8.22-9.37-8.22h-13.13v16.59Z"
         id="path6139" />
      <path
         class="cls-7"
         d="M213.31,709.79c0,18.05-9.83,27.49-23.65,27.49s-23.65-9.52-23.65-27.49,9.83-27.65,23.65-27.65,23.65,9.45,23.65,27.65ZM175.52,709.79c0,12.36,5.61,18.66,14.05,18.66s14.21-6.3,14.21-18.66-5.68-18.81-14.21-18.81-14.05,6.37-14.05,18.81Z"
         id="path6141" />
      <path
         class="cls-7"
         d="M246.71,683.15c11.13,0,18.58,5.76,18.58,16.82s-7.45,16.82-18.58,16.82h-12.9v19.51h-9.52v-53.14h22.42ZM233.73,708.41h13.13c5.61,0,9.37-2.69,9.37-8.37s-3.76-8.22-9.37-8.22h-13.13v16.59Z"
         id="path6143" />
      <path
         class="cls-7"
         d="M283.26,683.15v33.25c0,7.53,4.76,11.52,10.9,11.52s11.06-3.99,11.06-11.52v-33.25h9.52v33.25c0,13.59-9.29,20.35-20.58,20.35s-20.5-6.76-20.5-20.35v-33.25h9.6Z"
         id="path6145" />
      <path
         class="cls-7"
         d="M336.01,683.15v44.31h26.26v8.83h-35.79v-53.14h9.52Z"
         id="path6147" />
      <path
         class="cls-7"
         d="M396.21,683.15l20.04,53.14h-10.14l-3.84-10.75h-22.27l-3.76,10.75h-10.06l19.89-53.14h10.14ZM383,717.09h16.2l-8.14-22.73-8.06,22.73Z"
         id="path6149" />
      <path
         class="cls-7"
         d="M455.26,683.15v8.83h-15.59v44.31h-9.52v-44.31h-15.74v-8.83h40.85Z"
         id="path6151" />
      <path
         class="cls-7"
         d="M472.92,683.15v53.14h-9.6v-53.14h9.6Z"
         id="path6153" />
      <path
         class="cls-7"
         d="M531.13,709.79c0,18.05-9.83,27.49-23.65,27.49s-23.65-9.52-23.65-27.49,9.83-27.65,23.65-27.65,23.65,9.45,23.65,27.65ZM493.35,709.79c0,12.36,5.61,18.66,14.05,18.66s14.21-6.3,14.21-18.66-5.68-18.81-14.21-18.81-14.05,6.37-14.05,18.81Z"
         id="path6155" />
      <path
         class="cls-7"
         d="M551.63,683.15l22.81,35.86v-35.86h9.52v53.14h-8.75l-23.58-35.48v35.48h-9.52v-53.14h9.52Z"
         id="path6157" />
      <path
         class="cls-7"
         d="M648.84,683.15v7.37c-11.98,13.98-16.13,27.65-18.43,45.77h-8.91c1.77-17.36,6.3-31.87,15.9-44.69h-25.34v-8.45h36.78Z"
         id="path6159" />
      <path
         class="cls-7"
         d="M680.63,691.6c-12.21.15-18.81,5.22-21.04,14.05,3.15-2.69,7.37-4.61,12.75-4.61,10.14,0,16.66,6.76,16.66,16.82,0,10.67-7.3,19.43-19.35,19.43-13.67,0-19.12-11.37-19.12-23.96,0-17.74,10.9-30.1,30.1-30.18v8.45ZM658.82,714.02c.23,8.91,3.69,14.9,11.21,14.9,6.91,0,10.98-5.07,10.98-11.14,0-5.53-3.46-9.37-9.83-9.37-4.76,0-9.14,2.15-12.36,5.61Z"
         id="path6161" />
      <path
         class="cls-7"
         d="M727.32,691.6c-12.21.15-18.81,5.22-21.04,14.05,3.15-2.69,7.37-4.61,12.75-4.61,10.14,0,16.66,6.76,16.66,16.82,0,10.67-7.3,19.43-19.35,19.43-13.67,0-19.12-11.37-19.12-23.96,0-17.74,10.9-30.1,30.1-30.18v8.45ZM705.51,714.02c.23,8.91,3.69,14.9,11.21,14.9,6.91,0,10.98-5.07,10.98-11.14,0-5.53-3.46-9.37-9.83-9.37-4.76,0-9.14,2.15-12.36,5.61Z"
         id="path6163" />
      <path
         class="cls-7"
         d="M751.2,729.22l-7.53,17.82-4.99-1.69,3.99-18.89,8.52,2.76Z"
         id="path6165" />
      <path
         class="cls-7"
         d="M782.53,713.71c-3.15,2.69-7.37,4.68-12.82,4.68-10.06,0-16.59-6.76-16.59-16.82,0-10.67,7.3-19.43,19.35-19.43,13.67,0,19.12,11.37,19.12,23.96,0,17.74-10.9,30.1-30.18,30.18v-8.45c12.29-.08,18.97-5.22,21.12-14.13ZM783.3,705.42c-.31-8.91-3.69-14.9-11.21-14.9-6.99,0-10.98,5.07-10.98,11.13,0,5.53,3.38,9.37,9.83,9.37,4.76,0,9.06-2.07,12.36-5.61Z"
         id="path6167" />
      <path
         class="cls-7"
         d="M804.72,707.03c-2.69-2.46-4.22-5.99-4.22-10.44,0-10.29,8.29-14.44,16.43-14.44s16.28,4.15,16.28,14.44c0,4.45-1.54,7.99-4.22,10.44,4.38,2.3,7.37,6.6,7.37,13.29,0,9.83-6.53,16.97-19.43,16.97s-19.51-7.14-19.51-16.97c0-6.68,2.92-10.9,7.3-13.29ZM816.93,728.92c6.14,0,10.75-3.3,10.75-8.98s-4.61-8.45-10.75-8.45-10.83,2.76-10.83,8.45,4.53,8.98,10.83,8.98ZM816.93,704.04c4.22,0,8.14-2,8.14-6.68s-3.92-6.83-8.14-6.83-8.22,2.15-8.22,6.83,3.84,6.68,8.22,6.68Z"
         id="path6169" />
      <path
         class="cls-7"
         d="M874.37,683.15v7.37c-11.98,13.98-16.13,27.65-18.43,45.77h-8.91c1.77-17.36,6.3-31.87,15.9-44.69h-25.34v-8.45h36.78Z"
         id="path6171" />
    </g>
    <path
       class="cls-5"
       d="M1584.35,505.11c2.13.38,6.05-.48,7.26,2.27.76,4.55,1.01,10.29,1.99,14.69,13.26,2.23,77.41-13.62,76.5-5.8.86,5.15.93,6.08-.74,10.39.39.68,2.11.61,1.99,2.05.47,4.1,3.14,25.19,4.18,33.81.92,3.41-1.04,6.07-3.24,7.2-.62.84,0,2.05-.29,3.51-2.74,5.24,2.9,2.87,5.11,4.77.73.53.63,1.33.84,3.05.4,4.17,1.16,11.09,1.61,15.63.41,4.33-4.44,5.27-6.58,7.07.96,1.55,7.65-1.4,7.71,1.76,1.95,11.01,1.35,9.75-6.09,13.7-4.99,2.79-63.53,6.39-67.93,9.98.44,4.92,7.47,57.9,7.27,60.33-3.25.48-7.49.91-12.14,1.52-3.62.31-5.96.96-7.32.79-.68-4.25-7.28-58.72-7.83-61.25-15.52,1.85-62.4,7.73-66.23,8.16-3.1-.39-6.51-1.35-9.47-2.81-1.54-2.05-.99-5.81-1.67-8.61-.56-5.64-2.51-9.21,3.13-9.37.74-.18,1.13-.48,1-.94-1.45-3.42-5.26-4.9-6.36-8.39-1.49-9.29-3.25-27.51-4.22-34.42-1.09-4.41,8.02-1.9,9.8-4.12-11.24.64-11.37-.5-12.53-15.49-.73-3.02,4.5-3.6,2.73-6.44-4.1-1.09-4.64-6.56-5.07-11.21-1.76-6.25,62.86-8.58,75.79-12,.11-1.85-.52-4.35-.87-8.1-.06-2.71-1.41-6.15-.48-8.2,3.37-3.03,7.94-3.11,12.07-3.53h.08Z"
       id="path6175" />
    <g
       id="g6197">
      <path
         class="cls-7"
         d="M1519.57,552.68l6.81,9.97,4.18-11.34,5.58-.7-6.75,16.59,1.04,8.34-4.96.62-1.05-8.38-10.65-14.38,5.79-.72Z"
         id="path6177" />
      <path
         class="cls-7"
         d="M1559.32,559.86c1.01,8.1-2.97,12.9-9.31,13.69-6.34.79-11.35-2.89-12.36-10.99-1.02-8.13,2.93-12.97,9.27-13.76,6.34-.79,11.39,2.92,12.4,11.05ZM1542.67,561.94c.64,5.13,3.2,7.44,6.75,7,3.52-.44,5.54-3.32,4.89-8.45s-3.31-7.46-6.83-7.02c-3.55.44-5.46,3.34-4.82,8.48Z"
         id="path6179" />
      <path
         class="cls-7"
         d="M1567.41,546.71l1.86,14.92c.36,2.9,2.43,4.28,4.91,3.97,2.41-.3,4.17-2.17,3.81-5.06l-1.86-14.92,5.07-.63,1.86,14.92c.76,6.1-3.13,9.67-8.3,10.31-5.1.64-9.75-1.86-10.51-7.96l-1.86-14.92,5.03-.63Z"
         id="path6181" />
      <path
         class="cls-7"
         d="M1607.56,541.69l11.83,22.74-5.34.67-2.15-4.32-9.17,1.14-.99,4.71-5.31.66,5.78-24.94,5.34-.67ZM1603.7,557.33l6.13-.77-4.21-8.47-1.93,9.23Z"
         id="path6183" />
      <path
         class="cls-7"
         d="M1629.55,538.95c5.13-.64,8.89,1.44,9.52,6.44.45,3.58-1.03,6.08-3.72,7.46l6.93,8.72-5.69.71-6.24-8.18-3.89.49,1.1,8.82-5.03.63-2.98-23.85,9.99-1.25ZM1625.89,550.32l5.1-.64c2.17-.27,3.57-1.43,3.3-3.6-.27-2.14-1.9-2.88-4.07-2.61l-5.1.64.77,6.2Z"
         id="path6185" />
      <path
         class="cls-7"
         d="M1658.46,535.34l.58,4.65-10.68,1.33.6,4.79,7.58-.95.56,4.48-7.58.95.66,5.27,10.92-1.36.58,4.65-15.96,1.99-2.98-23.85,15.71-1.96Z"
         id="path6187" />
      <path
         class="cls-7"
         d="M1555.84,590.16l1.17,9.34,8.65-1.08-1.17-9.34,5.07-.63,2.98,23.85-5.07.63-1.23-9.86-8.65,1.08,1.23,9.86-5.03.63-2.98-23.85,5.03-.63Z"
         id="path6189" />
      <path
         class="cls-7"
         d="M1590.78,585.79l.58,4.65-10.68,1.33.6,4.79,7.58-.95.56,4.48-7.58.95.66,5.27,10.92-1.36.58,4.65-15.96,1.99-2.98-23.85,15.71-1.96Z"
         id="path6191" />
      <path
         class="cls-7"
         d="M1605.4,583.97c5.14-.64,8.9,1.44,9.52,6.44.45,3.58-1.03,6.08-3.72,7.46l6.93,8.72-5.69.71-6.24-8.18-3.89.49,1.1,8.82-5.03.63-2.98-23.85,9.99-1.25ZM1601.74,595.34l5.1-.64c2.17-.27,3.57-1.42,3.3-3.6-.27-2.14-1.9-2.88-4.07-2.61l-5.1.64.77,6.2Z"
         id="path6193" />
      <path
         class="cls-7"
         d="M1634.31,580.36l.58,4.65-10.68,1.33.6,4.79,7.58-.95.56,4.48-7.58.95.66,5.27,10.92-1.36.58,4.65-15.96,1.99-2.98-23.85,15.71-1.96Z"
         id="path6195" />
    </g>
  </g>
  <g
     id="g6271">
    <path
       class="cls-7"
       d="M166.87,1153.86l16.91,44.82h-8.55l-3.24-9.07h-18.78l-3.17,9.07h-8.48l16.78-44.82h8.55ZM155.73,1182.49h13.67l-6.87-19.17-6.8,19.17Z"
       id="path6201" />
    <path
       class="cls-7"
       d="M208.78,1153.86c9.39,0,15.67,4.86,15.67,14.18s-6.28,14.18-15.67,14.18h-10.88v16.45h-8.03v-44.82h18.91ZM197.83,1175.17h11.08c4.73,0,7.9-2.27,7.9-7.06s-3.17-6.93-7.9-6.93h-11.08v13.99Z"
       id="path6203" />
    <path
       class="cls-7"
       d="M251.07,1153.86c9.39,0,15.67,4.86,15.67,14.18s-6.28,14.18-15.67,14.18h-10.88v16.45h-8.03v-44.82h18.91ZM240.13,1175.17h11.08c4.73,0,7.9-2.27,7.9-7.06s-3.17-6.93-7.9-6.93h-11.08v13.99Z"
       id="path6205" />
    <path
       class="cls-7"
       d="M290.46,1153.86l16.91,44.82h-8.55l-3.24-9.07h-18.78l-3.17,9.07h-8.49l16.78-44.82h8.55ZM279.32,1182.49h13.67l-6.87-19.17-6.8,19.17Z"
       id="path6207" />
    <path
       class="cls-7"
       d="M331.98,1153.86c9.33,0,15.61,4.66,15.61,13.99,0,6.93-3.43,11.21-9,13.02l11.21,17.81h-9.13l-10.17-16.91h-9v16.91h-8.03v-44.82h18.53ZM321.42,1174.91h10.69c4.66,0,7.84-2.2,7.84-6.93s-3.17-6.8-7.84-6.8h-10.69v13.73Z"
       id="path6209" />
    <path
       class="cls-7"
       d="M385.29,1153.86v7.45h-20.86v10.88h15.16v7.19h-15.16v11.85h21.31v7.45h-29.34v-44.82h28.89Z"
       id="path6211" />
    <path
       class="cls-7"
       d="M402.13,1153.86l19.24,30.25v-30.25h8.03v44.82h-7.38l-19.88-29.92v29.92h-8.03v-44.82h8.03Z"
       id="path6213" />
    <path
       class="cls-7"
       d="M469.95,1153.86v7.45h-13.15v37.37h-8.03v-37.37h-13.28v-7.45h34.46Z"
       id="path6215" />
    <path
       class="cls-7"
       d="M484.78,1153.86v37.37h22.15v7.45h-30.18v-44.82h8.03Z"
       id="path6217" />
    <path
       class="cls-7"
       d="M512.38,1153.86l11.4,21.24,11.53-21.24h9l-16.58,28.76v16.06h-7.97v-16.13l-16.65-28.69h9.26Z"
       id="path6219" />
    <path
       class="cls-7"
       d="M596.32,1153.86v7.45h-20.86v10.88h15.16v7.19h-15.16v11.85h21.31v7.45h-29.34v-44.82h28.89Z"
       id="path6221" />
    <path
       class="cls-7"
       d="M609.41,1153.86l12.44,34.85,12.37-34.85h8.74l-16.84,44.82h-8.55l-16.84-44.82h8.68Z"
       id="path6223" />
    <path
       class="cls-7"
       d="M677.94,1153.86v7.45h-20.86v10.88h15.16v7.19h-15.16v11.85h21.31v7.45h-29.34v-44.82h28.89Z"
       id="path6225" />
    <path
       class="cls-7"
       d="M705.27,1153.86c9.33,0,15.61,4.66,15.61,13.99,0,6.93-3.43,11.21-9,13.02l11.21,17.81h-9.13l-10.17-16.91h-9v16.91h-8.03v-44.82h18.53ZM694.71,1174.91h10.69c4.66,0,7.84-2.2,7.84-6.93s-3.17-6.8-7.84-6.8h-10.69v13.73Z"
       id="path6227" />
    <path
       class="cls-7"
       d="M731.7,1153.86l11.4,21.24,11.53-21.24h9l-16.58,28.76v16.06h-7.97v-16.13l-16.65-28.69h9.26Z"
       id="path6229" />
    <path
       class="cls-7"
       d="M801.07,1153.86v7.45h-13.15v37.37h-8.03v-37.37h-13.28v-7.45h34.46Z"
       id="path6231" />
    <path
       class="cls-7"
       d="M815.91,1153.86v18.2h18.33v-18.2h8.1v44.82h-8.1v-19.17h-18.33v19.17h-8.03v-44.82h8.03Z"
       id="path6233" />
    <path
       class="cls-7"
       d="M860.93,1153.86v44.82h-8.1v-44.82h8.1Z"
       id="path6235" />
    <path
       class="cls-7"
       d="M879.39,1153.86l19.24,30.25v-30.25h8.03v44.82h-7.38l-19.88-29.92v29.92h-8.03v-44.82h8.03Z"
       id="path6237" />
    <path
       class="cls-7"
       d="M954,1174.4v5.63c0,11.66-6.61,19.5-18.27,19.5s-20.47-7.97-20.47-23.12,8.68-23.38,20.53-23.38c8.42,0,13.8,4.15,16.71,9.91l-5.89,4.4c-2.4-4.34-5.63-6.87-10.88-6.87-7.58,0-12.37,5.38-12.37,15.87s4.79,15.74,12.37,15.74c5.83,0,10.1-3.24,10.49-10.75h-9.13v-6.93h16.9Z"
       id="path6239" />
    <path
       class="cls-7"
       d="M988.34,1153.86v44.82h-8.1v-44.82h8.1Z"
       id="path6241" />
    <path
       class="cls-7"
       d="M1001.42,1186.18c3.17,3.56,7.58,5.96,13.73,5.96s10.04-2.46,10.04-6.74c0-3.11-2.01-4.34-4.6-5.25-3.89-1.36-9.2-1.94-14.06-3.89-4.79-1.94-8.03-4.73-8.03-10.17,0-7.45,5.96-12.7,16.45-12.7,8.81,0,14.18,3.69,16.91,7.12l-5.64,4.92c-2.66-2.79-6.35-4.86-11.66-4.86s-8.29,1.94-8.29,5.12c0,2.33,1.75,3.63,3.95,4.47,3.82,1.49,9.72,1.94,14.31,3.76,4.66,1.81,8.42,5.05,8.42,11.4,0,9.13-7.71,13.86-18.33,13.86-9.13,0-15.61-3.56-19.24-8.1l6.02-4.92Z"
       id="path6243" />
    <path
       class="cls-7"
       d="M1077.66,1153.86c8.03,0,13.54,4.21,13.54,12.05,0,4.4-1.68,7.58-5.05,9.33,4.02,1.75,6.61,5.12,6.61,10.69,0,8.1-5.44,12.76-15.09,12.76h-19.82v-44.82h19.82ZM1065.74,1172.52h12.11c3.17,0,5.76-2.01,5.76-5.83s-2.4-5.51-5.76-5.51h-12.11v11.34ZM1065.74,1191.43h11.85c5.05,0,7.51-2.14,7.51-6.02,0-4.4-3.11-6.28-8.23-6.28h-11.14v12.31Z"
       id="path6245" />
    <path
       class="cls-7"
       d="M1108.23,1153.86v44.82h-8.1v-44.82h8.1Z"
       id="path6247" />
    <path
       class="cls-7"
       d="M1156.16,1174.4v5.63c0,11.66-6.61,19.5-18.27,19.5s-20.47-7.97-20.47-23.12,8.68-23.38,20.53-23.38c8.42,0,13.8,4.15,16.71,9.91l-5.89,4.4c-2.4-4.34-5.63-6.87-10.88-6.87-7.58,0-12.37,5.38-12.37,15.87s4.79,15.74,12.37,15.74c5.83,0,10.1-3.24,10.49-10.75h-9.13v-6.93h16.9Z"
       id="path6249" />
    <path
       class="cls-7"
       d="M1202.54,1174.4v5.63c0,11.66-6.61,19.5-18.27,19.5s-20.47-7.97-20.47-23.12,8.68-23.38,20.53-23.38c8.42,0,13.8,4.15,16.71,9.91l-5.89,4.4c-2.4-4.34-5.63-6.87-10.88-6.87-7.58,0-12.37,5.38-12.37,15.87s4.79,15.74,12.37,15.74c5.83,0,10.1-3.24,10.49-10.75h-9.13v-6.93h16.9Z"
       id="path6251" />
    <path
       class="cls-7"
       d="M1240.31,1153.86v7.45h-20.86v10.88h15.16v7.19h-15.16v11.85h21.31v7.45h-29.34v-44.82h28.89Z"
       id="path6253" />
    <path
       class="cls-7"
       d="M1267.64,1153.86c9.33,0,15.61,4.66,15.61,13.99,0,6.93-3.43,11.21-9,13.02l11.21,17.81h-9.13l-10.17-16.91h-9v16.91h-8.03v-44.82h18.53ZM1257.08,1174.91h10.69c4.66,0,7.84-2.2,7.84-6.93s-3.17-6.8-7.84-6.8h-10.69v13.73Z"
       id="path6255" />
    <path
       class="cls-7"
       d="M1317.52,1153.86v44.82h-8.1v-44.82h8.1Z"
       id="path6257" />
    <path
       class="cls-7"
       d="M1335.98,1153.86l19.24,30.25v-30.25h8.03v44.82h-7.38l-19.88-29.92v29.92h-8.03v-44.82h8.03Z"
       id="path6259" />
    <path
       class="cls-7"
       d="M1421.15,1153.86v7.45h-13.15v37.37h-8.03v-37.37h-13.28v-7.45h34.46Z"
       id="path6261" />
    <path
       class="cls-7"
       d="M1456.84,1153.86v7.45h-20.86v10.88h15.16v7.19h-15.16v11.85h21.31v7.45h-29.34v-44.82h28.89Z"
       id="path6263" />
    <path
       class="cls-7"
       d="M1501.15,1153.86l-14.7,21.63,15.74,23.19h-9.59l-11.08-17.49-11.01,17.49h-9.26l15.48-23.71-14.18-21.12h9.26l10.23,15.54,10.17-15.54h8.94Z"
       id="path6265" />
    <path
       class="cls-7"
       d="M1530.17,1153.86l16.9,44.82h-8.55l-3.24-9.07h-18.78l-3.17,9.07h-8.49l16.78-44.82h8.55ZM1519.03,1182.49h13.67l-6.87-19.17-6.8,19.17Z"
       id="path6267" />
    <path
       class="cls-7"
       d="M1554.91,1186.18c3.17,3.56,7.58,5.96,13.73,5.96s10.04-2.46,10.04-6.74c0-3.11-2.01-4.34-4.6-5.25-3.89-1.36-9.2-1.94-14.06-3.89-4.79-1.94-8.03-4.73-8.03-10.17,0-7.45,5.96-12.7,16.45-12.7,8.81,0,14.18,3.69,16.91,7.12l-5.63,4.92c-2.66-2.79-6.35-4.86-11.66-4.86s-8.29,1.94-8.29,5.12c0,2.33,1.75,3.63,3.95,4.47,3.82,1.49,9.72,1.94,14.31,3.76,4.66,1.81,8.42,5.05,8.42,11.4,0,9.13-7.71,13.86-18.33,13.86-9.13,0-15.61-3.56-19.24-8.1l6.02-4.92Z"
       id="path6269" />
  </g>
  <line
     class="cls-2"
     y1="1069.12"
     x2="1728"
     y2="1069.12"
     id="line6273" />
  <g
     id="g6305">
    <path
       class="cls-7"
       d="M505.35,889.24v26.18c3.96-3.85,9.24-5.83,15.62-5.83,11.77,0,19.8,6.71,19.8,23.21v37.73h-14.96v-35.97c0-8.03-3.85-11-9.9-11-4.07,0-8.03,1.43-10.56,7.26v39.71h-14.85v-76.23l14.85-5.06Z"
       id="path6275" />
    <path
       class="cls-7"
       d="M562.88,911.02v-15.51l14.96-5.06v20.57h13.31v12.1h-13.31v28.49c0,3.3,1.65,5.06,5.72,5.06,3.41,0,5.72-1.1,7.92-3.08l-2.42,13.09c-2.31,2.64-7.26,4.4-11.88,4.4-7.81,0-14.3-5.17-14.3-15.95v-32.01h-6.93v-12.1h6.93Z"
       id="path6277" />
    <path
       class="cls-7"
       d="M609.19,911.02v-15.51l14.96-5.06v20.57h13.31v12.1h-13.31v28.49c0,3.3,1.65,5.06,5.72,5.06,3.41,0,5.72-1.1,7.92-3.08l-2.42,13.09c-2.31,2.64-7.26,4.4-11.88,4.4-7.81,0-14.3-5.17-14.3-15.95v-32.01h-6.93v-12.1h6.93Z"
       id="path6279" />
    <path
       class="cls-7"
       d="M667.05,911.02v5.72c3.74-4.18,9.02-7.15,15.84-7.15,15.95,0,22,15.95,22,31.24s-6.05,31.13-22,31.13c-6.27,0-11.22-2.42-14.85-6.05v22.44l-14.85,5.06v-82.39h13.86ZM668.04,929.83v21.89c2.42,3.85,5.94,6.71,11.11,6.71,8.69,0,11.66-8.03,11.66-17.6s-2.97-17.6-11.66-17.6c-5.17,0-8.69,2.75-11.11,6.6Z"
       id="path6281" />
    <path
       class="cls-7"
       d="M760.88,928.95c-4.18-3.63-10.78-6.16-17.16-6.16-5.61,0-7.37,1.98-7.37,4.07,0,1.87,1.32,3.19,3.74,4.29,3.74,1.76,12.87,4.18,18.92,7.48,5.94,3.3,8.69,7.26,8.69,14.3,0,14.96-12.54,19.03-24.09,19.03s-20.24-3.63-24.53-7.37l5.5-12.43c4.4,3.3,11.66,6.16,19.14,6.16,5.72,0,9.24-1.76,9.24-5.28,0-2.42-1.65-3.63-5.5-5.17-4.51-1.76-13.09-4.62-17.71-7.04-4.29-2.31-8.25-6.16-8.25-13.53,0-11.99,10.23-17.71,23.1-17.71,9.46,0,17.27,3.19,21.45,6.71l-5.17,12.65Z"
       id="path6283" />
    <path
       class="cls-7"
       d="M797.73,919.16c0,4.84-3.41,8.25-8.14,8.25s-8.03-3.41-8.03-8.25,3.41-8.25,8.03-8.25,8.14,3.41,8.14,8.25ZM797.73,955.46c0,4.84-3.41,8.25-8.14,8.25s-8.03-3.41-8.03-8.25,3.41-8.25,8.03-8.25,8.14,3.41,8.14,8.25Z"
       id="path6285" />
    <path
       class="cls-7"
       d="M847.89,883.41l-28.16,99h-10.34l28.16-99h10.34Z"
       id="path6287" />
    <path
       class="cls-7"
       d="M892.32,883.41l-28.16,99h-10.34l28.16-99h10.34Z"
       id="path6289" />
    <path
       class="cls-7"
       d="M906.95,911.02v-15.51l14.96-5.06v20.57h13.31v12.1h-13.31v28.49c0,3.3,1.65,5.06,5.72,5.06,3.41,0,5.72-1.1,7.92-3.08l-2.42,13.09c-2.31,2.64-7.26,4.4-11.88,4.4-7.81,0-14.3-5.17-14.3-15.95v-32.01h-6.93v-12.1h6.93Z"
       id="path6291" />
    <path
       class="cls-7"
       d="M1001,911.02l-18.48,27.28,21.45,32.23h-16.5l-13.75-22.11-13.53,22.11h-16.39l21.67-33.33-17.82-26.18h15.95l10.78,16.83,10.67-16.83h15.95Z"
       id="path6293" />
    <path
       class="cls-7"
       d="M1017.06,901.89c4.51,0,6.82-2.86,7.37-7.48h13.42v76.12h-14.85v-55.22h-9.13v-13.42h3.19Z"
       id="path6295" />
    <path
       class="cls-7"
       d="M1058.75,901.89c4.51,0,6.82-2.86,7.37-7.48h13.42v76.12h-14.85v-55.22h-9.13v-13.42h3.19Z"
       id="path6297" />
    <path
       class="cls-7"
       d="M1114.19,963.16c0,4.84-3.41,8.25-8.14,8.25s-8.03-3.41-8.03-8.25,3.41-8.25,8.03-8.25,8.14,3.41,8.14,8.25Z"
       id="path6299" />
    <path
       class="cls-7"
       d="M1143.01,911.02v37.4c0,6.71,4.4,9.57,10.01,9.57,3.96,0,7.81-1.43,10.45-7.15v-39.82h14.96v59.51h-13.97v-5.28c-4.18,4.51-9.79,6.71-16.61,6.71-11.77,0-19.69-6.71-19.69-20.9v-40.04h14.85Z"
       id="path6301" />
    <path
       class="cls-7"
       d="M1236.51,928.95c-4.18-3.63-10.78-6.16-17.16-6.16-5.61,0-7.37,1.98-7.37,4.07,0,1.87,1.32,3.19,3.74,4.29,3.74,1.76,12.87,4.18,18.92,7.48,5.94,3.3,8.69,7.26,8.69,14.3,0,14.96-12.54,19.03-24.09,19.03s-20.24-3.63-24.53-7.37l5.5-12.43c4.4,3.3,11.66,6.16,19.14,6.16,5.72,0,9.24-1.76,9.24-5.28,0-2.42-1.65-3.63-5.5-5.17-4.51-1.76-13.09-4.62-17.71-7.04-4.29-2.31-8.25-6.16-8.25-13.53,0-11.99,10.23-17.71,23.1-17.71,9.46,0,17.27,3.19,21.45,6.71l-5.17,12.65Z"
       id="path6303" />
  </g>
</svg>
